solid Default
  facet normal -2.411980e-15 1.296710e-15 1.000000e+00
    outer loop
      vertex 2.216295e+01 1.750000e+01 4.000000e+00
      vertex 1.816295e+01 1.450000e+01 4.000000e+00
      vertex 2.216295e+01 -2.500000e+00 4.000000e+00
    endloop
  endfacet
  facet normal -2.411980e-15 1.296710e-15 1.000000e+00
    outer loop
      vertex 1.816295e+01 1.450000e+01 4.000000e+00
      vertex 2.216295e+01 1.750000e+01 4.000000e+00
      vertex -2.216295e+01 1.750000e+01 4.000000e+00
    endloop
  endfacet
  facet normal -2.411980e-15 1.296710e-15 1.000000e+00
    outer loop
      vertex 2.216295e+01 -2.500000e+00 4.000000e+00
      vertex 1.816295e+01 1.450000e+01 4.000000e+00
      vertex 2.216295e+01 -1.750000e+01 4.000000e+00
    endloop
  endfacet
  facet normal -2.411980e-15 1.296710e-15 1.000000e+00
    outer loop
      vertex 1.816295e+01 1.450000e+01 4.000000e+00
      vertex -2.216295e+01 1.750000e+01 4.000000e+00
      vertex -1.816295e+01 1.450000e+01 4.000000e+00
    endloop
  endfacet
  facet normal -2.411980e-15 1.296710e-15 1.000000e+00
    outer loop
      vertex -1.816295e+01 1.450000e+01 4.000000e+00
      vertex -2.216295e+01 1.750000e+01 4.000000e+00
      vertex -1.816295e+01 -1.250000e+01 4.000000e+00
    endloop
  endfacet
  facet normal -2.411980e-15 1.296710e-15 1.000000e+00
    outer loop
      vertex 2.216295e+01 -1.750000e+01 4.000000e+00
      vertex 1.816295e+01 -1.450000e+01 4.000000e+00
      vertex -2.216295e+01 -1.750000e+01 4.000000e+00
    endloop
  endfacet
  facet normal -2.411980e-15 1.296710e-15 1.000000e+00
    outer loop
      vertex 1.816295e+01 -1.450000e+01 4.000000e+00
      vertex 2.216295e+01 -1.750000e+01 4.000000e+00
      vertex 1.816295e+01 1.450000e+01 4.000000e+00
    endloop
  endfacet
  facet normal -2.411980e-15 1.296710e-15 1.000000e+00
    outer loop
      vertex 1.816295e+01 -1.450000e+01 4.000000e+00
      vertex 1.816295e+01 1.450000e+01 4.000000e+00
      vertex 1.816295e+01 1.250000e+01 4.000000e+00
    endloop
  endfacet
  facet normal -2.411980e-15 1.296710e-15 1.000000e+00
    outer loop
      vertex 1.816295e+01 -1.450000e+01 4.000000e+00
      vertex 1.816295e+01 1.250000e+01 4.000000e+00
      vertex 1.816295e+01 -1.250000e+01 4.000000e+00
    endloop
  endfacet
  facet normal -2.411980e-15 1.296710e-15 1.000000e+00
    outer loop
      vertex -2.216295e+01 -1.750000e+01 4.000000e+00
      vertex 1.816295e+01 -1.450000e+01 4.000000e+00
      vertex -1.816295e+01 -1.450000e+01 4.000000e+00
    endloop
  endfacet
  facet normal -2.411980e-15 1.296710e-15 1.000000e+00
    outer loop
      vertex -2.216295e+01 -1.750000e+01 4.000000e+00
      vertex -1.816295e+01 -1.450000e+01 4.000000e+00
      vertex -1.816295e+01 -1.250000e+01 4.000000e+00
    endloop
  endfacet
  facet normal -2.411980e-15 1.296710e-15 1.000000e+00
    outer loop
      vertex -2.216295e+01 -1.750000e+01 4.000000e+00
      vertex -1.816295e+01 -1.250000e+01 4.000000e+00
      vertex -2.216295e+01 1.750000e+01 4.000000e+00
    endloop
  endfacet
  facet normal -2.411980e-15 1.296710e-15 1.000000e+00
    outer loop
      vertex -2.216295e+01 -1.750000e+01 4.000000e+00
      vertex -2.216295e+01 1.750000e+01 4.000000e+00
      vertex -2.216295e+01 -2.500000e+00 4.000000e+00
    endloop
  endfacet
  facet normal -2.411980e-15 1.296710e-15 1.000000e+00
    outer loop
      vertex -1.816295e+01 1.250000e+01 4.000000e+00
      vertex 1.816295e+01 -1.250000e+01 4.000000e+00
      vertex 1.816295e+01 1.250000e+01 4.000000e+00
    endloop
  endfacet
  facet normal -2.411980e-15 1.296710e-15 1.000000e+00
    outer loop
      vertex 1.816295e+01 -1.250000e+01 4.000000e+00
      vertex -1.816295e+01 1.250000e+01 4.000000e+00
      vertex -1.816295e+01 -1.250000e+01 4.000000e+00
    endloop
  endfacet
  facet normal -2.411980e-15 1.296710e-15 1.000000e+00
    outer loop
      vertex -1.816295e+01 -1.250000e+01 4.000000e+00
      vertex -1.816295e+01 1.250000e+01 4.000000e+00
      vertex -1.816295e+01 1.450000e+01 4.000000e+00
    endloop
  endfacet
  facet normal -1.000000e+00 -3.061617e-16 -2.164935e-15
    outer loop
      vertex 1.816295e+01 -1.250000e+01 4.000000e+00
      vertex 1.816295e+01 -1.450000e+01 0.000000e+00
      vertex 1.816295e+01 -1.450000e+01 4.000000e+00
    endloop
  endfacet
  facet normal -1.000000e+00 -3.061617e-16 -2.164935e-15
    outer loop
      vertex 1.816295e+01 -1.450000e+01 0.000000e+00
      vertex 1.816295e+01 -1.250000e+01 4.000000e+00
      vertex 1.816295e+01 -1.250000e+01 0.000000e+00
    endloop
  endfacet
  facet normal 1.000000e+00 1.185674e-14 2.164935e-15
    outer loop
      vertex -1.816295e+01 1.450000e+01 0.000000e+00
      vertex -1.816295e+01 1.250000e+01 4.000000e+00
      vertex -1.816295e+01 1.250000e+01 0.000000e+00
    endloop
  endfacet
  facet normal 1.000000e+00 1.185674e-14 2.164935e-15
    outer loop
      vertex -1.816295e+01 1.250000e+01 4.000000e+00
      vertex -1.816295e+01 1.450000e+01 0.000000e+00
      vertex -1.816295e+01 1.450000e+01 4.000000e+00
    endloop
  endfacet
  facet normal 2.906542e-16 -1.000000e+00 -4.759129e-16
    outer loop
      vertex -2.719823e+01 -2.500000e+00 1.586368e+01
      vertex -2.512767e+01 -2.500000e+00 1.586368e+01
      vertex -2.616295e+01 -2.500000e+00 1.600000e+01
    endloop
  endfacet
  facet normal 2.906542e-16 -1.000000e+00 -4.759129e-16
    outer loop
      vertex -2.512767e+01 -2.500000e+00 1.586368e+01
      vertex -2.719823e+01 -2.500000e+00 1.586368e+01
      vertex -2.816295e+01 -2.500000e+00 1.546408e+01
    endloop
  endfacet
  facet normal 2.906542e-16 -1.000000e+00 -4.759129e-16
    outer loop
      vertex -2.512767e+01 -2.500000e+00 1.586368e+01
      vertex -2.816295e+01 -2.500000e+00 1.546408e+01
      vertex -2.416295e+01 -2.500000e+00 1.546408e+01
    endloop
  endfacet
  facet normal 2.906542e-16 -1.000000e+00 -4.759129e-16
    outer loop
      vertex -2.416295e+01 -2.500000e+00 1.546408e+01
      vertex -2.816295e+01 -2.500000e+00 1.546408e+01
      vertex -2.899137e+01 -2.500000e+00 1.482840e+01
    endloop
  endfacet
  facet normal 2.906542e-16 -1.000000e+00 -4.759129e-16
    outer loop
      vertex -2.416295e+01 -2.500000e+00 1.546408e+01
      vertex -2.899137e+01 -2.500000e+00 1.482840e+01
      vertex -2.333452e+01 -2.500000e+00 1.482840e+01
    endloop
  endfacet
  facet normal 2.906542e-16 -1.000000e+00 -4.759129e-16
    outer loop
      vertex -2.333452e+01 -2.500000e+00 1.482840e+01
      vertex -2.899137e+01 -2.500000e+00 1.482840e+01
      vertex -2.962706e+01 -2.500000e+00 1.400000e+01
    endloop
  endfacet
  facet normal 2.906542e-16 -1.000000e+00 -4.759129e-16
    outer loop
      vertex -2.333452e+01 -2.500000e+00 1.482840e+01
      vertex -2.962706e+01 -2.500000e+00 1.400000e+01
      vertex -2.269885e+01 -2.500000e+00 1.400000e+01
    endloop
  endfacet
  facet normal 2.906542e-16 -1.000000e+00 -4.759129e-16
    outer loop
      vertex -2.269885e+01 -2.500000e+00 1.400000e+01
      vertex -2.962706e+01 -2.500000e+00 1.400000e+01
      vertex -2.616295e+01 -2.500000e+00 1.375000e+01
    endloop
  endfacet
  facet normal 2.906542e-16 -1.000000e+00 -4.759129e-16
    outer loop
      vertex -2.616295e+01 -2.500000e+00 1.375000e+01
      vertex -2.962706e+01 -2.500000e+00 1.400000e+01
      vertex -2.661588e+01 -2.500000e+00 1.369037e+01
    endloop
  endfacet
  facet normal 2.906542e-16 -1.000000e+00 -4.759129e-16
    outer loop
      vertex -2.661588e+01 -2.500000e+00 1.369037e+01
      vertex -2.962706e+01 -2.500000e+00 1.400000e+01
      vertex -3.002665e+01 -2.500000e+00 1.303525e+01
    endloop
  endfacet
  facet normal 2.906542e-16 -1.000000e+00 -4.759129e-16
    outer loop
      vertex -2.661588e+01 -2.500000e+00 1.369037e+01
      vertex -3.002665e+01 -2.500000e+00 1.303525e+01
      vertex -2.703795e+01 -2.500000e+00 1.351553e+01
    endloop
  endfacet
  facet normal 2.906542e-16 -1.000000e+00 -4.759129e-16
    outer loop
      vertex -2.703795e+01 -2.500000e+00 1.351553e+01
      vertex -3.002665e+01 -2.500000e+00 1.303525e+01
      vertex -2.740039e+01 -2.500000e+00 1.323743e+01
    endloop
  endfacet
  facet normal 2.906542e-16 -1.000000e+00 -4.759129e-16
    outer loop
      vertex -2.740039e+01 -2.500000e+00 1.323743e+01
      vertex -3.002665e+01 -2.500000e+00 1.303525e+01
      vertex -2.767850e+01 -2.500000e+00 1.287500e+01
    endloop
  endfacet
  facet normal 2.906542e-16 -1.000000e+00 -4.759129e-16
    outer loop
      vertex -2.767850e+01 -2.500000e+00 1.287500e+01
      vertex -3.002665e+01 -2.500000e+00 1.303525e+01
      vertex -3.016295e+01 -2.500000e+00 1.200000e+01
    endloop
  endfacet
  facet normal 2.906542e-16 -1.000000e+00 -4.759129e-16
    outer loop
      vertex -2.767850e+01 -2.500000e+00 1.287500e+01
      vertex -3.016295e+01 -2.500000e+00 1.200000e+01
      vertex -2.785332e+01 -2.500000e+00 1.245291e+01
    endloop
  endfacet
  facet normal 2.906542e-16 -1.000000e+00 -4.759129e-16
    outer loop
      vertex -2.785332e+01 -2.500000e+00 1.245291e+01
      vertex -3.016295e+01 -2.500000e+00 1.200000e+01
      vertex -2.791295e+01 -2.500000e+00 1.200000e+01
    endloop
  endfacet
  facet normal 2.906542e-16 -1.000000e+00 -4.759129e-16
    outer loop
      vertex -2.791295e+01 -2.500000e+00 1.200000e+01
      vertex -3.016295e+01 -2.500000e+00 1.200000e+01
      vertex -3.016295e+01 -2.500000e+00 0.000000e+00
    endloop
  endfacet
  facet normal 2.906542e-16 -1.000000e+00 -4.759129e-16
    outer loop
      vertex -2.791295e+01 -2.500000e+00 1.200000e+01
      vertex -3.016295e+01 -2.500000e+00 0.000000e+00
      vertex -2.785332e+01 -2.500000e+00 1.154706e+01
    endloop
  endfacet
  facet normal 2.906542e-16 -1.000000e+00 -4.759129e-16
    outer loop
      vertex -2.785332e+01 -2.500000e+00 1.154706e+01
      vertex -3.016295e+01 -2.500000e+00 0.000000e+00
      vertex -2.767850e+01 -2.500000e+00 1.112500e+01
    endloop
  endfacet
  facet normal 2.906542e-16 -1.000000e+00 -4.759129e-16
    outer loop
      vertex -2.767850e+01 -2.500000e+00 1.112500e+01
      vertex -3.016295e+01 -2.500000e+00 0.000000e+00
      vertex -2.740039e+01 -2.500000e+00 1.076254e+01
    endloop
  endfacet
  facet normal 2.906542e-16 -1.000000e+00 -4.759129e-16
    outer loop
      vertex -2.740039e+01 -2.500000e+00 1.076254e+01
      vertex -3.016295e+01 -2.500000e+00 0.000000e+00
      vertex -2.703795e+01 -2.500000e+00 1.048444e+01
    endloop
  endfacet
  facet normal 2.906542e-16 -1.000000e+00 -4.759129e-16
    outer loop
      vertex -2.703795e+01 -2.500000e+00 1.048444e+01
      vertex -3.016295e+01 -2.500000e+00 0.000000e+00
      vertex -2.661588e+01 -2.500000e+00 1.030963e+01
    endloop
  endfacet
  facet normal 2.906542e-16 -1.000000e+00 -4.759129e-16
    outer loop
      vertex -2.661588e+01 -2.500000e+00 1.030963e+01
      vertex -3.016295e+01 -2.500000e+00 0.000000e+00
      vertex -2.616295e+01 -2.500000e+00 1.025000e+01
    endloop
  endfacet
  facet normal 2.906542e-16 -1.000000e+00 -4.759129e-16
    outer loop
      vertex -2.616295e+01 -2.500000e+00 1.025000e+01
      vertex -3.016295e+01 -2.500000e+00 0.000000e+00
      vertex -2.216295e+01 -2.500000e+00 4.000000e+00
    endloop
  endfacet
  facet normal 2.906542e-16 -1.000000e+00 -4.759129e-16
    outer loop
      vertex -2.216295e+01 -2.500000e+00 4.000000e+00
      vertex -3.016295e+01 -2.500000e+00 0.000000e+00
      vertex -2.216295e+01 -2.500000e+00 0.000000e+00
    endloop
  endfacet
  facet normal 2.906542e-16 -1.000000e+00 -4.759129e-16
    outer loop
      vertex -2.269885e+01 -2.500000e+00 1.400000e+01
      vertex -2.571002e+01 -2.500000e+00 1.369037e+01
      vertex -2.229925e+01 -2.500000e+00 1.303525e+01
    endloop
  endfacet
  facet normal 2.906542e-16 -1.000000e+00 -4.759129e-16
    outer loop
      vertex -2.571002e+01 -2.500000e+00 1.369037e+01
      vertex -2.269885e+01 -2.500000e+00 1.400000e+01
      vertex -2.616295e+01 -2.500000e+00 1.375000e+01
    endloop
  endfacet
  facet normal 2.906542e-16 -1.000000e+00 -4.759129e-16
    outer loop
      vertex -2.229925e+01 -2.500000e+00 1.303525e+01
      vertex -2.571002e+01 -2.500000e+00 1.369037e+01
      vertex -2.528795e+01 -2.500000e+00 1.351553e+01
    endloop
  endfacet
  facet normal 2.906542e-16 -1.000000e+00 -4.759129e-16
    outer loop
      vertex -2.229925e+01 -2.500000e+00 1.303525e+01
      vertex -2.528795e+01 -2.500000e+00 1.351553e+01
      vertex -2.492551e+01 -2.500000e+00 1.323743e+01
    endloop
  endfacet
  facet normal 2.906542e-16 -1.000000e+00 -4.759129e-16
    outer loop
      vertex -2.229925e+01 -2.500000e+00 1.303525e+01
      vertex -2.492551e+01 -2.500000e+00 1.323743e+01
      vertex -2.464741e+01 -2.500000e+00 1.287500e+01
    endloop
  endfacet
  facet normal 2.906542e-16 -1.000000e+00 -4.759129e-16
    outer loop
      vertex -2.229925e+01 -2.500000e+00 1.303525e+01
      vertex -2.464741e+01 -2.500000e+00 1.287500e+01
      vertex -2.216295e+01 -2.500000e+00 1.200000e+01
    endloop
  endfacet
  facet normal 2.906542e-16 -1.000000e+00 -4.759129e-16
    outer loop
      vertex -2.216295e+01 -2.500000e+00 1.200000e+01
      vertex -2.464741e+01 -2.500000e+00 1.287500e+01
      vertex -2.447258e+01 -2.500000e+00 1.245291e+01
    endloop
  endfacet
  facet normal 2.906542e-16 -1.000000e+00 -4.759129e-16
    outer loop
      vertex -2.216295e+01 -2.500000e+00 1.200000e+01
      vertex -2.447258e+01 -2.500000e+00 1.245291e+01
      vertex -2.441295e+01 -2.500000e+00 1.200000e+01
    endloop
  endfacet
  facet normal 2.906542e-16 -1.000000e+00 -4.759129e-16
    outer loop
      vertex -2.216295e+01 -2.500000e+00 1.200000e+01
      vertex -2.441295e+01 -2.500000e+00 1.200000e+01
      vertex -2.447258e+01 -2.500000e+00 1.154706e+01
    endloop
  endfacet
  facet normal 2.906542e-16 -1.000000e+00 -4.759129e-16
    outer loop
      vertex -2.216295e+01 -2.500000e+00 1.200000e+01
      vertex -2.447258e+01 -2.500000e+00 1.154706e+01
      vertex -2.216295e+01 -2.500000e+00 4.000000e+00
    endloop
  endfacet
  facet normal 2.906542e-16 -1.000000e+00 -4.759129e-16
    outer loop
      vertex -2.216295e+01 -2.500000e+00 4.000000e+00
      vertex -2.447258e+01 -2.500000e+00 1.154706e+01
      vertex -2.464741e+01 -2.500000e+00 1.112500e+01
    endloop
  endfacet
  facet normal 2.906542e-16 -1.000000e+00 -4.759129e-16
    outer loop
      vertex -2.216295e+01 -2.500000e+00 4.000000e+00
      vertex -2.464741e+01 -2.500000e+00 1.112500e+01
      vertex -2.492551e+01 -2.500000e+00 1.076254e+01
    endloop
  endfacet
  facet normal 2.906542e-16 -1.000000e+00 -4.759129e-16
    outer loop
      vertex -2.216295e+01 -2.500000e+00 4.000000e+00
      vertex -2.492551e+01 -2.500000e+00 1.076254e+01
      vertex -2.528795e+01 -2.500000e+00 1.048444e+01
    endloop
  endfacet
  facet normal 2.906542e-16 -1.000000e+00 -4.759129e-16
    outer loop
      vertex -2.216295e+01 -2.500000e+00 4.000000e+00
      vertex -2.528795e+01 -2.500000e+00 1.048444e+01
      vertex -2.571002e+01 -2.500000e+00 1.030963e+01
    endloop
  endfacet
  facet normal 2.906542e-16 -1.000000e+00 -4.759129e-16
    outer loop
      vertex -2.216295e+01 -2.500000e+00 4.000000e+00
      vertex -2.571002e+01 -2.500000e+00 1.030963e+01
      vertex -2.616295e+01 -2.500000e+00 1.025000e+01
    endloop
  endfacet
  facet normal 2.164935e-15 6.123234e-17 -1.000000e+00
    outer loop
      vertex 2.216295e+01 -1.750000e+01 0.000000e+00
      vertex 1.816295e+01 -1.450000e+01 0.000000e+00
      vertex 2.216295e+01 -2.500000e+00 0.000000e+00
    endloop
  endfacet
  facet normal 2.164935e-15 6.123234e-17 -1.000000e+00
    outer loop
      vertex 1.816295e+01 -1.450000e+01 0.000000e+00
      vertex 2.216295e+01 -1.750000e+01 0.000000e+00
      vertex -2.216295e+01 -1.750000e+01 0.000000e+00
    endloop
  endfacet
  facet normal 2.164935e-15 6.123234e-17 -1.000000e+00
    outer loop
      vertex 1.816295e+01 -1.450000e+01 0.000000e+00
      vertex -2.216295e+01 -1.750000e+01 0.000000e+00
      vertex -1.816295e+01 -1.450000e+01 0.000000e+00
    endloop
  endfacet
  facet normal 2.164935e-15 6.123234e-17 -1.000000e+00
    outer loop
      vertex -1.816295e+01 -1.450000e+01 0.000000e+00
      vertex -2.216295e+01 -1.750000e+01 0.000000e+00
      vertex -1.816295e+01 -1.250000e+01 0.000000e+00
    endloop
  endfacet
  facet normal 2.164935e-15 6.123234e-17 -1.000000e+00
    outer loop
      vertex -1.816295e+01 -1.250000e+01 0.000000e+00
      vertex -2.216295e+01 -1.750000e+01 0.000000e+00
      vertex -1.816295e+01 1.450000e+01 0.000000e+00
    endloop
  endfacet
  facet normal 2.164935e-15 6.123234e-17 -1.000000e+00
    outer loop
      vertex 2.216295e+01 -2.500000e+00 0.000000e+00
      vertex 3.016295e+01 1.750000e+01 0.000000e+00
      vertex 3.016295e+01 -2.500000e+00 0.000000e+00
    endloop
  endfacet
  facet normal 2.164935e-15 6.123234e-17 -1.000000e+00
    outer loop
      vertex 3.016295e+01 1.750000e+01 0.000000e+00
      vertex 2.216295e+01 -2.500000e+00 0.000000e+00
      vertex 1.816295e+01 1.450000e+01 0.000000e+00
    endloop
  endfacet
  facet normal 2.164935e-15 6.123234e-17 -1.000000e+00
    outer loop
      vertex 3.016295e+01 1.750000e+01 0.000000e+00
      vertex 1.816295e+01 1.450000e+01 0.000000e+00
      vertex -3.016295e+01 1.750000e+01 0.000000e+00
    endloop
  endfacet
  facet normal 2.164935e-15 6.123234e-17 -1.000000e+00
    outer loop
      vertex 1.816295e+01 1.450000e+01 0.000000e+00
      vertex 2.216295e+01 -2.500000e+00 0.000000e+00
      vertex 1.816295e+01 -1.450000e+01 0.000000e+00
    endloop
  endfacet
  facet normal 2.164935e-15 6.123234e-17 -1.000000e+00
    outer loop
      vertex 1.816295e+01 1.450000e+01 0.000000e+00
      vertex 1.816295e+01 -1.450000e+01 0.000000e+00
      vertex 1.816295e+01 -1.250000e+01 0.000000e+00
    endloop
  endfacet
  facet normal 2.164935e-15 6.123234e-17 -1.000000e+00
    outer loop
      vertex 1.816295e+01 1.450000e+01 0.000000e+00
      vertex 1.816295e+01 -1.250000e+01 0.000000e+00
      vertex 1.816295e+01 1.250000e+01 0.000000e+00
    endloop
  endfacet
  facet normal 2.164935e-15 6.123234e-17 -1.000000e+00
    outer loop
      vertex -3.016295e+01 1.750000e+01 0.000000e+00
      vertex 1.816295e+01 1.450000e+01 0.000000e+00
      vertex -1.816295e+01 1.450000e+01 0.000000e+00
    endloop
  endfacet
  facet normal 2.164935e-15 6.123234e-17 -1.000000e+00
    outer loop
      vertex -3.016295e+01 1.750000e+01 0.000000e+00
      vertex -1.816295e+01 1.450000e+01 0.000000e+00
      vertex -2.216295e+01 -2.500000e+00 0.000000e+00
    endloop
  endfacet
  facet normal 2.164935e-15 6.123234e-17 -1.000000e+00
    outer loop
      vertex -2.216295e+01 -2.500000e+00 0.000000e+00
      vertex -1.816295e+01 1.450000e+01 0.000000e+00
      vertex -2.216295e+01 -1.750000e+01 0.000000e+00
    endloop
  endfacet
  facet normal 2.164935e-15 6.123234e-17 -1.000000e+00
    outer loop
      vertex -3.016295e+01 1.750000e+01 0.000000e+00
      vertex -2.216295e+01 -2.500000e+00 0.000000e+00
      vertex -3.016295e+01 -2.500000e+00 0.000000e+00
    endloop
  endfacet
  facet normal 2.164935e-15 6.123234e-17 -1.000000e+00
    outer loop
      vertex -1.816295e+01 -1.250000e+01 0.000000e+00
      vertex 1.816295e+01 1.250000e+01 0.000000e+00
      vertex 1.816295e+01 -1.250000e+01 0.000000e+00
    endloop
  endfacet
  facet normal 2.164935e-15 6.123234e-17 -1.000000e+00
    outer loop
      vertex 1.816295e+01 1.250000e+01 0.000000e+00
      vertex -1.816295e+01 -1.250000e+01 0.000000e+00
      vertex -1.816295e+01 1.250000e+01 0.000000e+00
    endloop
  endfacet
  facet normal 2.164935e-15 6.123234e-17 -1.000000e+00
    outer loop
      vertex -1.816295e+01 1.250000e+01 0.000000e+00
      vertex -1.816295e+01 -1.250000e+01 0.000000e+00
      vertex -1.816295e+01 1.450000e+01 0.000000e+00
    endloop
  endfacet
  facet normal -1.000000e+00 -3.061617e-16 -2.164935e-15
    outer loop
      vertex 1.816295e+01 1.450000e+01 4.000000e+00
      vertex 1.816295e+01 1.250000e+01 0.000000e+00
      vertex 1.816295e+01 1.250000e+01 4.000000e+00
    endloop
  endfacet
  facet normal -1.000000e+00 -3.061617e-16 -2.164935e-15
    outer loop
      vertex 1.816295e+01 1.250000e+01 0.000000e+00
      vertex 1.816295e+01 1.450000e+01 4.000000e+00
      vertex 1.816295e+01 1.450000e+01 0.000000e+00
    endloop
  endfacet
  facet normal 6.087614e-01 1.345467e-16 7.933533e-01
    outer loop
      vertex 2.816295e+01 1.750000e+01 1.546408e+01
      vertex 2.899138e+01 -2.500000e+00 1.482840e+01
      vertex 2.899138e+01 1.750000e+01 1.482840e+01
    endloop
  endfacet
  facet normal 6.087614e-01 1.345467e-16 7.933533e-01
    outer loop
      vertex 2.899138e+01 -2.500000e+00 1.482840e+01
      vertex 2.816295e+01 1.750000e+01 1.546408e+01
      vertex 2.816295e+01 -2.500000e+00 1.546408e+01
    endloop
  endfacet
  facet normal -9.238795e-01 -5.589738e-16 3.826834e-01
    outer loop
      vertex -2.962706e+01 1.750000e+01 1.400000e+01
      vertex -3.002665e+01 -2.500000e+00 1.303525e+01
      vertex -2.962706e+01 -2.500000e+00 1.400000e+01
    endloop
  endfacet
  facet normal -9.238795e-01 -5.589738e-16 3.826834e-01
    outer loop
      vertex -3.002665e+01 -2.500000e+00 1.303525e+01
      vertex -2.962706e+01 1.750000e+01 1.400000e+01
      vertex -3.002665e+01 1.750000e+01 1.303525e+01
    endloop
  endfacet
  facet normal 9.914449e-01 4.788437e-16 1.305262e-01
    outer loop
      vertex -2.216295e+01 1.750000e+01 1.200000e+01
      vertex -2.229925e+01 -2.500000e+00 1.303525e+01
      vertex -2.216295e+01 -2.500000e+00 1.200000e+01
    endloop
  endfacet
  facet normal 9.914449e-01 4.788437e-16 1.305262e-01
    outer loop
      vertex -2.229925e+01 -2.500000e+00 1.303525e+01
      vertex -2.216295e+01 1.750000e+01 1.200000e+01
      vertex -2.229925e+01 1.750000e+01 1.303525e+01
    endloop
  endfacet
  facet normal 9.238795e-01 3.878411e-16 3.826834e-01
    outer loop
      vertex 3.002665e+01 1.750000e+01 1.303525e+01
      vertex 2.962705e+01 -2.500000e+00 1.400000e+01
      vertex 3.002665e+01 -2.500000e+00 1.303525e+01
    endloop
  endfacet
  facet normal 9.238795e-01 3.878411e-16 3.826834e-01
    outer loop
      vertex 2.962705e+01 -2.500000e+00 1.400000e+01
      vertex 3.002665e+01 1.750000e+01 1.303525e+01
      vertex 2.962705e+01 1.750000e+01 1.400000e+01
    endloop
  endfacet
  facet normal 9.914449e-01 4.788437e-16 1.305262e-01
    outer loop
      vertex 3.016295e+01 1.750000e+01 1.200000e+01
      vertex 3.002665e+01 -2.500000e+00 1.303525e+01
      vertex 3.016295e+01 -2.500000e+00 1.200000e+01
    endloop
  endfacet
  facet normal 9.914449e-01 4.788437e-16 1.305262e-01
    outer loop
      vertex 3.002665e+01 -2.500000e+00 1.303525e+01
      vertex 3.016295e+01 1.750000e+01 1.200000e+01
      vertex 3.002665e+01 1.750000e+01 1.303525e+01
    endloop
  endfacet
  facet normal -6.087614e-01 -4.893273e-16 7.933533e-01
    outer loop
      vertex -2.899137e+01 1.750000e+01 1.482840e+01
      vertex -2.816295e+01 -2.500000e+00 1.546408e+01
      vertex -2.816295e+01 1.750000e+01 1.546408e+01
    endloop
  endfacet
  facet normal -6.087614e-01 -4.893273e-16 7.933533e-01
    outer loop
      vertex -2.816295e+01 -2.500000e+00 1.546408e+01
      vertex -2.899137e+01 1.750000e+01 1.482840e+01
      vertex -2.899137e+01 -2.500000e+00 1.482840e+01
    endloop
  endfacet
  facet normal 1.000000e+00 3.061617e-16 2.164935e-15
    outer loop
      vertex 3.016295e+01 1.750000e+01 0.000000e+00
      vertex 3.016295e+01 -2.500000e+00 1.200000e+01
      vertex 3.016295e+01 -2.500000e+00 0.000000e+00
    endloop
  endfacet
  facet normal 1.000000e+00 3.061617e-16 2.164935e-15
    outer loop
      vertex 3.016295e+01 -2.500000e+00 1.200000e+01
      vertex 3.016295e+01 1.750000e+01 0.000000e+00
      vertex 3.016295e+01 1.750000e+01 1.200000e+01
    endloop
  endfacet
  facet normal -9.914449e-01 -5.372139e-16 1.305262e-01
    outer loop
      vertex 2.229925e+01 1.750000e+01 1.303525e+01
      vertex 2.216295e+01 -2.500000e+00 1.200000e+01
      vertex 2.229925e+01 -2.500000e+00 1.303525e+01
    endloop
  endfacet
  facet normal -9.914449e-01 -5.372139e-16 1.305262e-01
    outer loop
      vertex 2.216295e+01 -2.500000e+00 1.200000e+01
      vertex 2.229925e+01 1.750000e+01 1.303525e+01
      vertex 2.216295e+01 1.750000e+01 1.200000e+01
    endloop
  endfacet
  facet normal 3.826834e-01 -1.048361e-17 9.238795e-01
    outer loop
      vertex 2.719823e+01 1.750000e+01 1.586368e+01
      vertex 2.816295e+01 -2.500000e+00 1.546408e+01
      vertex 2.816295e+01 1.750000e+01 1.546408e+01
    endloop
  endfacet
  facet normal 3.826834e-01 -1.048361e-17 9.238795e-01
    outer loop
      vertex 2.816295e+01 -2.500000e+00 1.546408e+01
      vertex 2.719823e+01 1.750000e+01 1.586368e+01
      vertex 2.719823e+01 -2.500000e+00 1.586368e+01
    endloop
  endfacet
  facet normal 1.305262e-01 -1.547995e-16 9.914449e-01
    outer loop
      vertex -2.616295e+01 1.750000e+01 1.600000e+01
      vertex -2.512767e+01 -2.500000e+00 1.586368e+01
      vertex -2.512767e+01 1.750000e+01 1.586368e+01
    endloop
  endfacet
  facet normal 1.305262e-01 -1.547995e-16 9.914449e-01
    outer loop
      vertex -2.512767e+01 -2.500000e+00 1.586368e+01
      vertex -2.616295e+01 1.750000e+01 1.600000e+01
      vertex -2.616295e+01 -2.500000e+00 1.600000e+01
    endloop
  endfacet
  facet normal -5.257842e-16 1.000000e+00 6.123234e-17
    outer loop
      vertex -2.512767e+01 1.750000e+01 1.586368e+01
      vertex -2.719823e+01 1.750000e+01 1.586368e+01
      vertex -2.616295e+01 1.750000e+01 1.600000e+01
    endloop
  endfacet
  facet normal -5.257842e-16 1.000000e+00 6.123234e-17
    outer loop
      vertex -2.719823e+01 1.750000e+01 1.586368e+01
      vertex -2.512767e+01 1.750000e+01 1.586368e+01
      vertex -2.416295e+01 1.750000e+01 1.546408e+01
    endloop
  endfacet
  facet normal -5.257842e-16 1.000000e+00 6.123234e-17
    outer loop
      vertex -2.719823e+01 1.750000e+01 1.586368e+01
      vertex -2.416295e+01 1.750000e+01 1.546408e+01
      vertex -2.816295e+01 1.750000e+01 1.546408e+01
    endloop
  endfacet
  facet normal -5.257842e-16 1.000000e+00 6.123234e-17
    outer loop
      vertex -2.816295e+01 1.750000e+01 1.546408e+01
      vertex -2.416295e+01 1.750000e+01 1.546408e+01
      vertex -2.333452e+01 1.750000e+01 1.482840e+01
    endloop
  endfacet
  facet normal -5.257842e-16 1.000000e+00 6.123234e-17
    outer loop
      vertex -2.816295e+01 1.750000e+01 1.546408e+01
      vertex -2.333452e+01 1.750000e+01 1.482840e+01
      vertex -2.899137e+01 1.750000e+01 1.482840e+01
    endloop
  endfacet
  facet normal -5.257842e-16 1.000000e+00 6.123234e-17
    outer loop
      vertex -2.899137e+01 1.750000e+01 1.482840e+01
      vertex -2.333452e+01 1.750000e+01 1.482840e+01
      vertex -2.269885e+01 1.750000e+01 1.400000e+01
    endloop
  endfacet
  facet normal -5.257842e-16 1.000000e+00 6.123234e-17
    outer loop
      vertex -2.899137e+01 1.750000e+01 1.482840e+01
      vertex -2.269885e+01 1.750000e+01 1.400000e+01
      vertex -2.962706e+01 1.750000e+01 1.400000e+01
    endloop
  endfacet
  facet normal -5.257842e-16 1.000000e+00 6.123234e-17
    outer loop
      vertex -2.962706e+01 1.750000e+01 1.400000e+01
      vertex -2.269885e+01 1.750000e+01 1.400000e+01
      vertex -2.616295e+01 1.750000e+01 1.375000e+01
    endloop
  endfacet
  facet normal -5.257842e-16 1.000000e+00 6.123234e-17
    outer loop
      vertex -2.616295e+01 1.750000e+01 1.375000e+01
      vertex -2.269885e+01 1.750000e+01 1.400000e+01
      vertex -2.571002e+01 1.750000e+01 1.369037e+01
    endloop
  endfacet
  facet normal -5.257842e-16 1.000000e+00 6.123234e-17
    outer loop
      vertex -2.571002e+01 1.750000e+01 1.369037e+01
      vertex -2.269885e+01 1.750000e+01 1.400000e+01
      vertex -2.229925e+01 1.750000e+01 1.303525e+01
    endloop
  endfacet
  facet normal -5.257842e-16 1.000000e+00 6.123234e-17
    outer loop
      vertex -2.571002e+01 1.750000e+01 1.369037e+01
      vertex -2.229925e+01 1.750000e+01 1.303525e+01
      vertex -2.528795e+01 1.750000e+01 1.351553e+01
    endloop
  endfacet
  facet normal -5.257842e-16 1.000000e+00 6.123234e-17
    outer loop
      vertex -2.528795e+01 1.750000e+01 1.351553e+01
      vertex -2.229925e+01 1.750000e+01 1.303525e+01
      vertex -2.492551e+01 1.750000e+01 1.323743e+01
    endloop
  endfacet
  facet normal -5.257842e-16 1.000000e+00 6.123234e-17
    outer loop
      vertex -2.492551e+01 1.750000e+01 1.323743e+01
      vertex -2.229925e+01 1.750000e+01 1.303525e+01
      vertex -2.464741e+01 1.750000e+01 1.287500e+01
    endloop
  endfacet
  facet normal -5.257842e-16 1.000000e+00 6.123234e-17
    outer loop
      vertex -2.464741e+01 1.750000e+01 1.287500e+01
      vertex -2.229925e+01 1.750000e+01 1.303525e+01
      vertex -2.216295e+01 1.750000e+01 1.200000e+01
    endloop
  endfacet
  facet normal -5.257842e-16 1.000000e+00 6.123234e-17
    outer loop
      vertex -2.464741e+01 1.750000e+01 1.287500e+01
      vertex -2.216295e+01 1.750000e+01 1.200000e+01
      vertex -2.447258e+01 1.750000e+01 1.245291e+01
    endloop
  endfacet
  facet normal -5.257842e-16 1.000000e+00 6.123234e-17
    outer loop
      vertex -2.447258e+01 1.750000e+01 1.245291e+01
      vertex -2.216295e+01 1.750000e+01 1.200000e+01
      vertex -2.441295e+01 1.750000e+01 1.200000e+01
    endloop
  endfacet
  facet normal -5.257842e-16 1.000000e+00 6.123234e-17
    outer loop
      vertex -2.441295e+01 1.750000e+01 1.200000e+01
      vertex -2.216295e+01 1.750000e+01 1.200000e+01
      vertex -2.447258e+01 1.750000e+01 1.154706e+01
    endloop
  endfacet
  facet normal -5.257842e-16 1.000000e+00 6.123234e-17
    outer loop
      vertex -2.447258e+01 1.750000e+01 1.154706e+01
      vertex -2.216295e+01 1.750000e+01 1.200000e+01
      vertex -2.216295e+01 1.750000e+01 4.000000e+00
    endloop
  endfacet
  facet normal -5.257842e-16 1.000000e+00 6.123234e-17
    outer loop
      vertex -2.447258e+01 1.750000e+01 1.154706e+01
      vertex -2.216295e+01 1.750000e+01 4.000000e+00
      vertex -2.464741e+01 1.750000e+01 1.112500e+01
    endloop
  endfacet
  facet normal -5.257842e-16 1.000000e+00 6.123234e-17
    outer loop
      vertex -2.464741e+01 1.750000e+01 1.112500e+01
      vertex -2.216295e+01 1.750000e+01 4.000000e+00
      vertex -2.492551e+01 1.750000e+01 1.076254e+01
    endloop
  endfacet
  facet normal -5.257842e-16 1.000000e+00 6.123234e-17
    outer loop
      vertex -2.492551e+01 1.750000e+01 1.076254e+01
      vertex -2.216295e+01 1.750000e+01 4.000000e+00
      vertex -2.528795e+01 1.750000e+01 1.048444e+01
    endloop
  endfacet
  facet normal -5.257842e-16 1.000000e+00 6.123234e-17
    outer loop
      vertex -2.528795e+01 1.750000e+01 1.048444e+01
      vertex -2.216295e+01 1.750000e+01 4.000000e+00
      vertex -2.571002e+01 1.750000e+01 1.030963e+01
    endloop
  endfacet
  facet normal -5.257842e-16 1.000000e+00 6.123234e-17
    outer loop
      vertex -2.571002e+01 1.750000e+01 1.030963e+01
      vertex -2.216295e+01 1.750000e+01 4.000000e+00
      vertex -2.616295e+01 1.750000e+01 1.025000e+01
    endloop
  endfacet
  facet normal -5.257842e-16 1.000000e+00 6.123234e-17
    outer loop
      vertex 2.719823e+01 1.750000e+01 1.586368e+01
      vertex 2.512768e+01 1.750000e+01 1.586368e+01
      vertex 2.616295e+01 1.750000e+01 1.600000e+01
    endloop
  endfacet
  facet normal -5.257842e-16 1.000000e+00 6.123234e-17
    outer loop
      vertex 2.512768e+01 1.750000e+01 1.586368e+01
      vertex 2.719823e+01 1.750000e+01 1.586368e+01
      vertex 2.816295e+01 1.750000e+01 1.546408e+01
    endloop
  endfacet
  facet normal -5.257842e-16 1.000000e+00 6.123234e-17
    outer loop
      vertex 2.512768e+01 1.750000e+01 1.586368e+01
      vertex 2.816295e+01 1.750000e+01 1.546408e+01
      vertex 2.416295e+01 1.750000e+01 1.546408e+01
    endloop
  endfacet
  facet normal -5.257842e-16 1.000000e+00 6.123234e-17
    outer loop
      vertex 2.416295e+01 1.750000e+01 1.546408e+01
      vertex 2.816295e+01 1.750000e+01 1.546408e+01
      vertex 2.899138e+01 1.750000e+01 1.482840e+01
    endloop
  endfacet
  facet normal -5.257842e-16 1.000000e+00 6.123234e-17
    outer loop
      vertex 2.416295e+01 1.750000e+01 1.546408e+01
      vertex 2.899138e+01 1.750000e+01 1.482840e+01
      vertex 2.333452e+01 1.750000e+01 1.482840e+01
    endloop
  endfacet
  facet normal -5.257842e-16 1.000000e+00 6.123234e-17
    outer loop
      vertex 2.333452e+01 1.750000e+01 1.482840e+01
      vertex 2.899138e+01 1.750000e+01 1.482840e+01
      vertex 2.962705e+01 1.750000e+01 1.400000e+01
    endloop
  endfacet
  facet normal -5.257842e-16 1.000000e+00 6.123234e-17
    outer loop
      vertex 2.333452e+01 1.750000e+01 1.482840e+01
      vertex 2.962705e+01 1.750000e+01 1.400000e+01
      vertex 2.269885e+01 1.750000e+01 1.400000e+01
    endloop
  endfacet
  facet normal -5.257842e-16 1.000000e+00 6.123234e-17
    outer loop
      vertex 2.269885e+01 1.750000e+01 1.400000e+01
      vertex 2.962705e+01 1.750000e+01 1.400000e+01
      vertex 2.616295e+01 1.750000e+01 1.375000e+01
    endloop
  endfacet
  facet normal -5.257842e-16 1.000000e+00 6.123234e-17
    outer loop
      vertex 2.616295e+01 1.750000e+01 1.375000e+01
      vertex 2.962705e+01 1.750000e+01 1.400000e+01
      vertex 2.661588e+01 1.750000e+01 1.369037e+01
    endloop
  endfacet
  facet normal -5.257842e-16 1.000000e+00 6.123234e-17
    outer loop
      vertex 2.661588e+01 1.750000e+01 1.369037e+01
      vertex 2.962705e+01 1.750000e+01 1.400000e+01
      vertex 3.002665e+01 1.750000e+01 1.303525e+01
    endloop
  endfacet
  facet normal -5.257842e-16 1.000000e+00 6.123234e-17
    outer loop
      vertex 2.661588e+01 1.750000e+01 1.369037e+01
      vertex 3.002665e+01 1.750000e+01 1.303525e+01
      vertex 2.703795e+01 1.750000e+01 1.351553e+01
    endloop
  endfacet
  facet normal -5.257842e-16 1.000000e+00 6.123234e-17
    outer loop
      vertex 2.703795e+01 1.750000e+01 1.351553e+01
      vertex 3.002665e+01 1.750000e+01 1.303525e+01
      vertex 2.740039e+01 1.750000e+01 1.323743e+01
    endloop
  endfacet
  facet normal -5.257842e-16 1.000000e+00 6.123234e-17
    outer loop
      vertex 2.740039e+01 1.750000e+01 1.323743e+01
      vertex 3.002665e+01 1.750000e+01 1.303525e+01
      vertex 2.767850e+01 1.750000e+01 1.287500e+01
    endloop
  endfacet
  facet normal -5.257842e-16 1.000000e+00 6.123234e-17
    outer loop
      vertex 2.767850e+01 1.750000e+01 1.287500e+01
      vertex 3.002665e+01 1.750000e+01 1.303525e+01
      vertex 3.016295e+01 1.750000e+01 1.200000e+01
    endloop
  endfacet
  facet normal -5.257842e-16 1.000000e+00 6.123234e-17
    outer loop
      vertex 2.767850e+01 1.750000e+01 1.287500e+01
      vertex 3.016295e+01 1.750000e+01 1.200000e+01
      vertex 2.785332e+01 1.750000e+01 1.245291e+01
    endloop
  endfacet
  facet normal -5.257842e-16 1.000000e+00 6.123234e-17
    outer loop
      vertex 2.785332e+01 1.750000e+01 1.245291e+01
      vertex 3.016295e+01 1.750000e+01 1.200000e+01
      vertex 2.791295e+01 1.750000e+01 1.200000e+01
    endloop
  endfacet
  facet normal -5.257842e-16 1.000000e+00 6.123234e-17
    outer loop
      vertex 2.791295e+01 1.750000e+01 1.200000e+01
      vertex 3.016295e+01 1.750000e+01 1.200000e+01
      vertex 3.016295e+01 1.750000e+01 0.000000e+00
    endloop
  endfacet
  facet normal -5.257842e-16 1.000000e+00 6.123234e-17
    outer loop
      vertex 2.791295e+01 1.750000e+01 1.200000e+01
      vertex 3.016295e+01 1.750000e+01 0.000000e+00
      vertex 2.785332e+01 1.750000e+01 1.154706e+01
    endloop
  endfacet
  facet normal -5.257842e-16 1.000000e+00 6.123234e-17
    outer loop
      vertex 2.785332e+01 1.750000e+01 1.154706e+01
      vertex 3.016295e+01 1.750000e+01 0.000000e+00
      vertex 2.767850e+01 1.750000e+01 1.112500e+01
    endloop
  endfacet
  facet normal -5.257842e-16 1.000000e+00 6.123234e-17
    outer loop
      vertex 2.767850e+01 1.750000e+01 1.112500e+01
      vertex 3.016295e+01 1.750000e+01 0.000000e+00
      vertex 2.740039e+01 1.750000e+01 1.076254e+01
    endloop
  endfacet
  facet normal -5.257842e-16 1.000000e+00 6.123234e-17
    outer loop
      vertex 2.740039e+01 1.750000e+01 1.076254e+01
      vertex 3.016295e+01 1.750000e+01 0.000000e+00
      vertex 2.703795e+01 1.750000e+01 1.048444e+01
    endloop
  endfacet
  facet normal -5.257842e-16 1.000000e+00 6.123234e-17
    outer loop
      vertex 2.703795e+01 1.750000e+01 1.048444e+01
      vertex 3.016295e+01 1.750000e+01 0.000000e+00
      vertex 2.661588e+01 1.750000e+01 1.030963e+01
    endloop
  endfacet
  facet normal -5.257842e-16 1.000000e+00 6.123234e-17
    outer loop
      vertex 2.661588e+01 1.750000e+01 1.030963e+01
      vertex 3.016295e+01 1.750000e+01 0.000000e+00
      vertex 2.616295e+01 1.750000e+01 1.025000e+01
    endloop
  endfacet
  facet normal -5.257842e-16 1.000000e+00 6.123234e-17
    outer loop
      vertex 2.616295e+01 1.750000e+01 1.025000e+01
      vertex 3.016295e+01 1.750000e+01 0.000000e+00
      vertex 2.216295e+01 1.750000e+01 4.000000e+00
    endloop
  endfacet
  facet normal -5.257842e-16 1.000000e+00 6.123234e-17
    outer loop
      vertex 2.216295e+01 1.750000e+01 4.000000e+00
      vertex 3.016295e+01 1.750000e+01 0.000000e+00
      vertex -2.216295e+01 1.750000e+01 4.000000e+00
    endloop
  endfacet
  facet normal -5.257842e-16 1.000000e+00 6.123234e-17
    outer loop
      vertex -2.962706e+01 1.750000e+01 1.400000e+01
      vertex -2.661588e+01 1.750000e+01 1.369037e+01
      vertex -3.002665e+01 1.750000e+01 1.303525e+01
    endloop
  endfacet
  facet normal -5.257842e-16 1.000000e+00 6.123234e-17
    outer loop
      vertex -2.661588e+01 1.750000e+01 1.369037e+01
      vertex -2.962706e+01 1.750000e+01 1.400000e+01
      vertex -2.616295e+01 1.750000e+01 1.375000e+01
    endloop
  endfacet
  facet normal -5.257842e-16 1.000000e+00 6.123234e-17
    outer loop
      vertex -3.002665e+01 1.750000e+01 1.303525e+01
      vertex -2.661588e+01 1.750000e+01 1.369037e+01
      vertex -2.703795e+01 1.750000e+01 1.351553e+01
    endloop
  endfacet
  facet normal -5.257842e-16 1.000000e+00 6.123234e-17
    outer loop
      vertex -3.002665e+01 1.750000e+01 1.303525e+01
      vertex -2.703795e+01 1.750000e+01 1.351553e+01
      vertex -2.740039e+01 1.750000e+01 1.323743e+01
    endloop
  endfacet
  facet normal -5.257842e-16 1.000000e+00 6.123234e-17
    outer loop
      vertex -3.002665e+01 1.750000e+01 1.303525e+01
      vertex -2.740039e+01 1.750000e+01 1.323743e+01
      vertex -2.767850e+01 1.750000e+01 1.287500e+01
    endloop
  endfacet
  facet normal -5.257842e-16 1.000000e+00 6.123234e-17
    outer loop
      vertex -3.002665e+01 1.750000e+01 1.303525e+01
      vertex -2.767850e+01 1.750000e+01 1.287500e+01
      vertex -3.016295e+01 1.750000e+01 1.200000e+01
    endloop
  endfacet
  facet normal -5.257842e-16 1.000000e+00 6.123234e-17
    outer loop
      vertex -3.016295e+01 1.750000e+01 1.200000e+01
      vertex -2.767850e+01 1.750000e+01 1.287500e+01
      vertex -2.785332e+01 1.750000e+01 1.245291e+01
    endloop
  endfacet
  facet normal -5.257842e-16 1.000000e+00 6.123234e-17
    outer loop
      vertex -3.016295e+01 1.750000e+01 1.200000e+01
      vertex -2.785332e+01 1.750000e+01 1.245291e+01
      vertex -2.791295e+01 1.750000e+01 1.200000e+01
    endloop
  endfacet
  facet normal -5.257842e-16 1.000000e+00 6.123234e-17
    outer loop
      vertex -3.016295e+01 1.750000e+01 1.200000e+01
      vertex -2.791295e+01 1.750000e+01 1.200000e+01
      vertex -3.016295e+01 1.750000e+01 0.000000e+00
    endloop
  endfacet
  facet normal -5.257842e-16 1.000000e+00 6.123234e-17
    outer loop
      vertex -3.016295e+01 1.750000e+01 0.000000e+00
      vertex -2.791295e+01 1.750000e+01 1.200000e+01
      vertex -2.785332e+01 1.750000e+01 1.154706e+01
    endloop
  endfacet
  facet normal -5.257842e-16 1.000000e+00 6.123234e-17
    outer loop
      vertex -3.016295e+01 1.750000e+01 0.000000e+00
      vertex -2.785332e+01 1.750000e+01 1.154706e+01
      vertex -2.767850e+01 1.750000e+01 1.112500e+01
    endloop
  endfacet
  facet normal -5.257842e-16 1.000000e+00 6.123234e-17
    outer loop
      vertex -3.016295e+01 1.750000e+01 0.000000e+00
      vertex -2.767850e+01 1.750000e+01 1.112500e+01
      vertex -2.740039e+01 1.750000e+01 1.076254e+01
    endloop
  endfacet
  facet normal -5.257842e-16 1.000000e+00 6.123234e-17
    outer loop
      vertex -3.016295e+01 1.750000e+01 0.000000e+00
      vertex -2.740039e+01 1.750000e+01 1.076254e+01
      vertex -2.703795e+01 1.750000e+01 1.048444e+01
    endloop
  endfacet
  facet normal -5.257842e-16 1.000000e+00 6.123234e-17
    outer loop
      vertex -3.016295e+01 1.750000e+01 0.000000e+00
      vertex -2.703795e+01 1.750000e+01 1.048444e+01
      vertex -2.661588e+01 1.750000e+01 1.030963e+01
    endloop
  endfacet
  facet normal -5.257842e-16 1.000000e+00 6.123234e-17
    outer loop
      vertex -3.016295e+01 1.750000e+01 0.000000e+00
      vertex -2.661588e+01 1.750000e+01 1.030963e+01
      vertex -2.616295e+01 1.750000e+01 1.025000e+01
    endloop
  endfacet
  facet normal -5.257842e-16 1.000000e+00 6.123234e-17
    outer loop
      vertex -3.016295e+01 1.750000e+01 0.000000e+00
      vertex -2.616295e+01 1.750000e+01 1.025000e+01
      vertex -2.216295e+01 1.750000e+01 4.000000e+00
    endloop
  endfacet
  facet normal -5.257842e-16 1.000000e+00 6.123234e-17
    outer loop
      vertex -3.016295e+01 1.750000e+01 0.000000e+00
      vertex -2.216295e+01 1.750000e+01 4.000000e+00
      vertex 3.016295e+01 1.750000e+01 0.000000e+00
    endloop
  endfacet
  facet normal -5.257842e-16 1.000000e+00 6.123234e-17
    outer loop
      vertex 2.269885e+01 1.750000e+01 1.400000e+01
      vertex 2.571002e+01 1.750000e+01 1.369037e+01
      vertex 2.229925e+01 1.750000e+01 1.303525e+01
    endloop
  endfacet
  facet normal -5.257842e-16 1.000000e+00 6.123234e-17
    outer loop
      vertex 2.571002e+01 1.750000e+01 1.369037e+01
      vertex 2.269885e+01 1.750000e+01 1.400000e+01
      vertex 2.616295e+01 1.750000e+01 1.375000e+01
    endloop
  endfacet
  facet normal -5.257842e-16 1.000000e+00 6.123234e-17
    outer loop
      vertex 2.229925e+01 1.750000e+01 1.303525e+01
      vertex 2.571002e+01 1.750000e+01 1.369037e+01
      vertex 2.528795e+01 1.750000e+01 1.351553e+01
    endloop
  endfacet
  facet normal -5.257842e-16 1.000000e+00 6.123234e-17
    outer loop
      vertex 2.229925e+01 1.750000e+01 1.303525e+01
      vertex 2.528795e+01 1.750000e+01 1.351553e+01
      vertex 2.492551e+01 1.750000e+01 1.323743e+01
    endloop
  endfacet
  facet normal -5.257842e-16 1.000000e+00 6.123234e-17
    outer loop
      vertex 2.229925e+01 1.750000e+01 1.303525e+01
      vertex 2.492551e+01 1.750000e+01 1.323743e+01
      vertex 2.464741e+01 1.750000e+01 1.287500e+01
    endloop
  endfacet
  facet normal -5.257842e-16 1.000000e+00 6.123234e-17
    outer loop
      vertex 2.229925e+01 1.750000e+01 1.303525e+01
      vertex 2.464741e+01 1.750000e+01 1.287500e+01
      vertex 2.216295e+01 1.750000e+01 1.200000e+01
    endloop
  endfacet
  facet normal -5.257842e-16 1.000000e+00 6.123234e-17
    outer loop
      vertex 2.216295e+01 1.750000e+01 1.200000e+01
      vertex 2.464741e+01 1.750000e+01 1.287500e+01
      vertex 2.447258e+01 1.750000e+01 1.245291e+01
    endloop
  endfacet
  facet normal -5.257842e-16 1.000000e+00 6.123234e-17
    outer loop
      vertex 2.216295e+01 1.750000e+01 1.200000e+01
      vertex 2.447258e+01 1.750000e+01 1.245291e+01
      vertex 2.441295e+01 1.750000e+01 1.200000e+01
    endloop
  endfacet
  facet normal -5.257842e-16 1.000000e+00 6.123234e-17
    outer loop
      vertex 2.216295e+01 1.750000e+01 1.200000e+01
      vertex 2.441295e+01 1.750000e+01 1.200000e+01
      vertex 2.447258e+01 1.750000e+01 1.154706e+01
    endloop
  endfacet
  facet normal -5.257842e-16 1.000000e+00 6.123234e-17
    outer loop
      vertex 2.216295e+01 1.750000e+01 1.200000e+01
      vertex 2.447258e+01 1.750000e+01 1.154706e+01
      vertex 2.216295e+01 1.750000e+01 4.000000e+00
    endloop
  endfacet
  facet normal -5.257842e-16 1.000000e+00 6.123234e-17
    outer loop
      vertex 2.216295e+01 1.750000e+01 4.000000e+00
      vertex 2.447258e+01 1.750000e+01 1.154706e+01
      vertex 2.464741e+01 1.750000e+01 1.112500e+01
    endloop
  endfacet
  facet normal -5.257842e-16 1.000000e+00 6.123234e-17
    outer loop
      vertex 2.216295e+01 1.750000e+01 4.000000e+00
      vertex 2.464741e+01 1.750000e+01 1.112500e+01
      vertex 2.492551e+01 1.750000e+01 1.076254e+01
    endloop
  endfacet
  facet normal -5.257842e-16 1.000000e+00 6.123234e-17
    outer loop
      vertex 2.216295e+01 1.750000e+01 4.000000e+00
      vertex 2.492551e+01 1.750000e+01 1.076254e+01
      vertex 2.528795e+01 1.750000e+01 1.048444e+01
    endloop
  endfacet
  facet normal -5.257842e-16 1.000000e+00 6.123234e-17
    outer loop
      vertex 2.216295e+01 1.750000e+01 4.000000e+00
      vertex 2.528795e+01 1.750000e+01 1.048444e+01
      vertex 2.571002e+01 1.750000e+01 1.030963e+01
    endloop
  endfacet
  facet normal -5.257842e-16 1.000000e+00 6.123234e-17
    outer loop
      vertex 2.216295e+01 1.750000e+01 4.000000e+00
      vertex 2.571002e+01 1.750000e+01 1.030963e+01
      vertex 2.616295e+01 1.750000e+01 1.025000e+01
    endloop
  endfacet
  facet normal -1.305262e-01 -2.885660e-16 9.914449e-01
    outer loop
      vertex -2.719823e+01 1.750000e+01 1.586368e+01
      vertex -2.616295e+01 -2.500000e+00 1.600000e+01
      vertex -2.616295e+01 1.750000e+01 1.600000e+01
    endloop
  endfacet
  facet normal -1.305262e-01 -2.885660e-16 9.914449e-01
    outer loop
      vertex -2.616295e+01 -2.500000e+00 1.600000e+01
      vertex -2.719823e+01 1.750000e+01 1.586368e+01
      vertex -2.719823e+01 -2.500000e+00 1.586368e+01
    endloop
  endfacet
  facet normal 7.933533e-01 2.704078e-16 6.087614e-01
    outer loop
      vertex -2.269885e+01 1.750000e+01 1.400000e+01
      vertex -2.333452e+01 -2.500000e+00 1.482840e+01
      vertex -2.269885e+01 -2.500000e+00 1.400000e+01
    endloop
  endfacet
  facet normal 7.933533e-01 2.704078e-16 6.087614e-01
    outer loop
      vertex -2.333452e+01 -2.500000e+00 1.482840e+01
      vertex -2.269885e+01 1.750000e+01 1.400000e+01
      vertex -2.333452e+01 1.750000e+01 1.482840e+01
    endloop
  endfacet
  facet normal -9.914449e-01 -5.372139e-16 1.305262e-01
    outer loop
      vertex -3.002665e+01 1.750000e+01 1.303525e+01
      vertex -3.016295e+01 -2.500000e+00 1.200000e+01
      vertex -3.002665e+01 -2.500000e+00 1.303525e+01
    endloop
  endfacet
  facet normal -9.914449e-01 -5.372139e-16 1.305262e-01
    outer loop
      vertex -3.016295e+01 -2.500000e+00 1.200000e+01
      vertex -3.002665e+01 1.750000e+01 1.303525e+01
      vertex -3.016295e+01 1.750000e+01 1.200000e+01
    endloop
  endfacet
  facet normal 1.000000e+00 3.904725e-16 8.815368e-16
    outer loop
      vertex -2.216295e+01 1.750000e+01 4.000000e+00
      vertex -2.216295e+01 -2.500000e+00 1.200000e+01
      vertex -2.216295e+01 -2.500000e+00 4.000000e+00
    endloop
  endfacet
  facet normal 1.000000e+00 3.904725e-16 8.815368e-16
    outer loop
      vertex -2.216295e+01 -2.500000e+00 1.200000e+01
      vertex -2.216295e+01 1.750000e+01 4.000000e+00
      vertex -2.216295e+01 1.750000e+01 1.200000e+01
    endloop
  endfacet
  facet normal -6.087614e-01 -4.893273e-16 7.933533e-01
    outer loop
      vertex 2.333452e+01 1.750000e+01 1.482840e+01
      vertex 2.416295e+01 -2.500000e+00 1.546408e+01
      vertex 2.416295e+01 1.750000e+01 1.546408e+01
    endloop
  endfacet
  facet normal -6.087614e-01 -4.893273e-16 7.933533e-01
    outer loop
      vertex 2.416295e+01 -2.500000e+00 1.546408e+01
      vertex 2.333452e+01 1.750000e+01 1.482840e+01
      vertex 2.333452e+01 -2.500000e+00 1.482840e+01
    endloop
  endfacet
  facet normal -1.305262e-01 -2.885660e-16 9.914449e-01
    outer loop
      vertex 2.512768e+01 1.750000e+01 1.586368e+01
      vertex 2.616295e+01 -2.500000e+00 1.600000e+01
      vertex 2.616295e+01 1.750000e+01 1.600000e+01
    endloop
  endfacet
  facet normal -1.305262e-01 -2.885660e-16 9.914449e-01
    outer loop
      vertex 2.616295e+01 -2.500000e+00 1.600000e+01
      vertex 2.512768e+01 1.750000e+01 1.586368e+01
      vertex 2.512768e+01 -2.500000e+00 1.586368e+01
    endloop
  endfacet
  facet normal 1.305262e-01 -1.547995e-16 9.914449e-01
    outer loop
      vertex 2.616295e+01 1.750000e+01 1.600000e+01
      vertex 2.719823e+01 -2.500000e+00 1.586368e+01
      vertex 2.719823e+01 1.750000e+01 1.586368e+01
    endloop
  endfacet
  facet normal 1.305262e-01 -1.547995e-16 9.914449e-01
    outer loop
      vertex 2.719823e+01 -2.500000e+00 1.586368e+01
      vertex 2.616295e+01 1.750000e+01 1.600000e+01
      vertex 2.616295e+01 -2.500000e+00 1.600000e+01
    endloop
  endfacet
  facet normal 7.933533e-01 2.704078e-16 6.087614e-01
    outer loop
      vertex 2.962705e+01 1.750000e+01 1.400000e+01
      vertex 2.899138e+01 -2.500000e+00 1.482840e+01
      vertex 2.962705e+01 -2.500000e+00 1.400000e+01
    endloop
  endfacet
  facet normal 7.933533e-01 2.704078e-16 6.087614e-01
    outer loop
      vertex 2.899138e+01 -2.500000e+00 1.482840e+01
      vertex 2.962705e+01 1.750000e+01 1.400000e+01
      vertex 2.899138e+01 1.750000e+01 1.482840e+01
    endloop
  endfacet
  facet normal 9.914449e-01 5.372139e-16 -1.305262e-01
    outer loop
      vertex 2.441295e+01 1.750000e+01 1.200000e+01
      vertex 2.447258e+01 -2.500000e+00 1.245291e+01
      vertex 2.441295e+01 -2.500000e+00 1.200000e+01
    endloop
  endfacet
  facet normal 9.914449e-01 5.372139e-16 -1.305262e-01
    outer loop
      vertex 2.447258e+01 -2.500000e+00 1.245291e+01
      vertex 2.441295e+01 1.750000e+01 1.200000e+01
      vertex 2.447258e+01 1.750000e+01 1.245291e+01
    endloop
  endfacet
  facet normal -7.933533e-01 -5.426406e-16 6.087614e-01
    outer loop
      vertex -2.899137e+01 1.750000e+01 1.482840e+01
      vertex -2.962706e+01 -2.500000e+00 1.400000e+01
      vertex -2.899137e+01 -2.500000e+00 1.482840e+01
    endloop
  endfacet
  facet normal -7.933533e-01 -5.426406e-16 6.087614e-01
    outer loop
      vertex -2.962706e+01 -2.500000e+00 1.400000e+01
      vertex -2.899137e+01 1.750000e+01 1.482840e+01
      vertex -2.962706e+01 1.750000e+01 1.400000e+01
    endloop
  endfacet
  facet normal 6.087614e-01 1.345467e-16 7.933533e-01
    outer loop
      vertex -2.416295e+01 1.750000e+01 1.546408e+01
      vertex -2.333452e+01 -2.500000e+00 1.482840e+01
      vertex -2.333452e+01 1.750000e+01 1.482840e+01
    endloop
  endfacet
  facet normal 6.087614e-01 1.345467e-16 7.933533e-01
    outer loop
      vertex -2.333452e+01 -2.500000e+00 1.482840e+01
      vertex -2.416295e+01 1.750000e+01 1.546408e+01
      vertex -2.416295e+01 -2.500000e+00 1.546408e+01
    endloop
  endfacet
  facet normal 9.238795e-01 3.878411e-16 3.826834e-01
    outer loop
      vertex -2.229925e+01 1.750000e+01 1.303525e+01
      vertex -2.269885e+01 -2.500000e+00 1.400000e+01
      vertex -2.229925e+01 -2.500000e+00 1.303525e+01
    endloop
  endfacet
  facet normal 9.238795e-01 3.878411e-16 3.826834e-01
    outer loop
      vertex -2.269885e+01 -2.500000e+00 1.400000e+01
      vertex -2.229925e+01 1.750000e+01 1.303525e+01
      vertex -2.269885e+01 1.750000e+01 1.400000e+01
    endloop
  endfacet
  facet normal -3.826834e-01 -4.026672e-16 9.238795e-01
    outer loop
      vertex -2.816295e+01 1.750000e+01 1.546408e+01
      vertex -2.719823e+01 -2.500000e+00 1.586368e+01
      vertex -2.719823e+01 1.750000e+01 1.586368e+01
    endloop
  endfacet
  facet normal -3.826834e-01 -4.026672e-16 9.238795e-01
    outer loop
      vertex -2.719823e+01 -2.500000e+00 1.586368e+01
      vertex -2.816295e+01 1.750000e+01 1.546408e+01
      vertex -2.816295e+01 -2.500000e+00 1.546408e+01
    endloop
  endfacet
  facet normal -1.000000e+00 -3.061617e-16 1.451816e-16
    outer loop
      vertex -3.016295e+01 1.750000e+01 1.200000e+01
      vertex -3.016295e+01 -2.500000e+00 0.000000e+00
      vertex -3.016295e+01 -2.500000e+00 1.200000e+01
    endloop
  endfacet
  facet normal -1.000000e+00 -3.061617e-16 1.451816e-16
    outer loop
      vertex -3.016295e+01 -2.500000e+00 0.000000e+00
      vertex -3.016295e+01 1.750000e+01 1.200000e+01
      vertex -3.016295e+01 1.750000e+01 0.000000e+00
    endloop
  endfacet
  facet normal 3.826834e-01 -1.048361e-17 9.238795e-01
    outer loop
      vertex -2.512767e+01 1.750000e+01 1.586368e+01
      vertex -2.416295e+01 -2.500000e+00 1.546408e+01
      vertex -2.416295e+01 1.750000e+01 1.546408e+01
    endloop
  endfacet
  facet normal 3.826834e-01 -1.048361e-17 9.238795e-01
    outer loop
      vertex -2.416295e+01 -2.500000e+00 1.546408e+01
      vertex -2.512767e+01 1.750000e+01 1.586368e+01
      vertex -2.512767e+01 -2.500000e+00 1.586368e+01
    endloop
  endfacet
  facet normal -9.238795e-01 -5.589738e-16 3.826834e-01
    outer loop
      vertex 2.269885e+01 1.750000e+01 1.400000e+01
      vertex 2.229925e+01 -2.500000e+00 1.303525e+01
      vertex 2.269885e+01 -2.500000e+00 1.400000e+01
    endloop
  endfacet
  facet normal -9.238795e-01 -5.589738e-16 3.826834e-01
    outer loop
      vertex 2.229925e+01 -2.500000e+00 1.303525e+01
      vertex 2.269885e+01 1.750000e+01 1.400000e+01
      vertex 2.229925e+01 1.750000e+01 1.303525e+01
    endloop
  endfacet
  facet normal -7.933533e-01 -5.426406e-16 6.087614e-01
    outer loop
      vertex 2.333452e+01 1.750000e+01 1.482840e+01
      vertex 2.269885e+01 -2.500000e+00 1.400000e+01
      vertex 2.333452e+01 -2.500000e+00 1.482840e+01
    endloop
  endfacet
  facet normal -7.933533e-01 -5.426406e-16 6.087614e-01
    outer loop
      vertex 2.269885e+01 -2.500000e+00 1.400000e+01
      vertex 2.333452e+01 1.750000e+01 1.482840e+01
      vertex 2.269885e+01 1.750000e+01 1.400000e+01
    endloop
  endfacet
  facet normal -3.826834e-01 -4.026672e-16 9.238795e-01
    outer loop
      vertex 2.416295e+01 1.750000e+01 1.546408e+01
      vertex 2.512768e+01 -2.500000e+00 1.586368e+01
      vertex 2.512768e+01 1.750000e+01 1.586368e+01
    endloop
  endfacet
  facet normal -3.826834e-01 -4.026672e-16 9.238795e-01
    outer loop
      vertex 2.512768e+01 -2.500000e+00 1.586368e+01
      vertex 2.416295e+01 1.750000e+01 1.546408e+01
      vertex 2.416295e+01 -2.500000e+00 1.546408e+01
    endloop
  endfacet
  facet normal -9.238795e-01 -3.878411e-16 -3.826834e-01
    outer loop
      vertex -2.464741e+01 1.750000e+01 1.287500e+01
      vertex -2.447258e+01 -2.500000e+00 1.245291e+01
      vertex -2.464741e+01 -2.500000e+00 1.287500e+01
    endloop
  endfacet
  facet normal -9.238795e-01 -3.878411e-16 -3.826834e-01
    outer loop
      vertex -2.447258e+01 -2.500000e+00 1.245291e+01
      vertex -2.464741e+01 1.750000e+01 1.287500e+01
      vertex -2.447258e+01 1.750000e+01 1.245291e+01
    endloop
  endfacet
  facet normal -6.087614e-01 -1.345467e-16 -7.933533e-01
    outer loop
      vertex -2.528795e+01 -2.500000e+00 1.351553e+01
      vertex -2.492551e+01 1.750000e+01 1.323743e+01
      vertex -2.492551e+01 -2.500000e+00 1.323743e+01
    endloop
  endfacet
  facet normal -6.087614e-01 -1.345467e-16 -7.933533e-01
    outer loop
      vertex -2.492551e+01 1.750000e+01 1.323743e+01
      vertex -2.528795e+01 -2.500000e+00 1.351553e+01
      vertex -2.528795e+01 1.750000e+01 1.351553e+01
    endloop
  endfacet
  facet normal -1.305262e-01 1.547995e-16 -9.914449e-01
    outer loop
      vertex -2.616295e+01 -2.500000e+00 1.375000e+01
      vertex -2.571002e+01 1.750000e+01 1.369037e+01
      vertex -2.571002e+01 -2.500000e+00 1.369037e+01
    endloop
  endfacet
  facet normal -1.305262e-01 1.547995e-16 -9.914449e-01
    outer loop
      vertex -2.571002e+01 1.750000e+01 1.369037e+01
      vertex -2.616295e+01 -2.500000e+00 1.375000e+01
      vertex -2.616295e+01 1.750000e+01 1.375000e+01
    endloop
  endfacet
  facet normal -6.087614e-01 -1.345467e-16 -7.933533e-01
    outer loop
      vertex 2.703795e+01 -2.500000e+00 1.351553e+01
      vertex 2.740039e+01 1.750000e+01 1.323743e+01
      vertex 2.740039e+01 -2.500000e+00 1.323743e+01
    endloop
  endfacet
  facet normal -6.087614e-01 -1.345467e-16 -7.933533e-01
    outer loop
      vertex 2.740039e+01 1.750000e+01 1.323743e+01
      vertex 2.703795e+01 -2.500000e+00 1.351553e+01
      vertex 2.703795e+01 1.750000e+01 1.351553e+01
    endloop
  endfacet
  facet normal -9.238795e-01 -3.878411e-16 -3.826834e-01
    outer loop
      vertex 2.767850e+01 1.750000e+01 1.287500e+01
      vertex 2.785332e+01 -2.500000e+00 1.245291e+01
      vertex 2.767850e+01 -2.500000e+00 1.287500e+01
    endloop
  endfacet
  facet normal -9.238795e-01 -3.878411e-16 -3.826834e-01
    outer loop
      vertex 2.785332e+01 -2.500000e+00 1.245291e+01
      vertex 2.767850e+01 1.750000e+01 1.287500e+01
      vertex 2.785332e+01 1.750000e+01 1.245291e+01
    endloop
  endfacet
  facet normal -9.914449e-01 -5.372139e-16 1.305262e-01
    outer loop
      vertex 2.791295e+01 1.750000e+01 1.200000e+01
      vertex 2.785332e+01 -2.500000e+00 1.154706e+01
      vertex 2.791295e+01 -2.500000e+00 1.200000e+01
    endloop
  endfacet
  facet normal -9.914449e-01 -5.372139e-16 1.305262e-01
    outer loop
      vertex 2.785332e+01 -2.500000e+00 1.154706e+01
      vertex 2.791295e+01 1.750000e+01 1.200000e+01
      vertex 2.785332e+01 1.750000e+01 1.154706e+01
    endloop
  endfacet
  facet normal -3.826834e-01 1.048361e-17 -9.238795e-01
    outer loop
      vertex -2.571002e+01 -2.500000e+00 1.369037e+01
      vertex -2.528795e+01 1.750000e+01 1.351553e+01
      vertex -2.528795e+01 -2.500000e+00 1.351553e+01
    endloop
  endfacet
  facet normal -3.826834e-01 1.048361e-17 -9.238795e-01
    outer loop
      vertex -2.528795e+01 1.750000e+01 1.351553e+01
      vertex -2.571002e+01 -2.500000e+00 1.369037e+01
      vertex -2.571002e+01 1.750000e+01 1.369037e+01
    endloop
  endfacet
  facet normal 9.914449e-01 4.788437e-16 1.305262e-01
    outer loop
      vertex 2.447258e+01 1.750000e+01 1.154706e+01
      vertex 2.441295e+01 -2.500000e+00 1.200000e+01
      vertex 2.447258e+01 -2.500000e+00 1.154706e+01
    endloop
  endfacet
  facet normal 9.914449e-01 4.788437e-16 1.305262e-01
    outer loop
      vertex 2.441295e+01 -2.500000e+00 1.200000e+01
      vertex 2.447258e+01 1.750000e+01 1.154706e+01
      vertex 2.441295e+01 1.750000e+01 1.200000e+01
    endloop
  endfacet
  facet normal -6.087614e-01 -4.893273e-16 7.933533e-01
    outer loop
      vertex 2.703795e+01 1.750000e+01 1.048444e+01
      vertex 2.740039e+01 -2.500000e+00 1.076254e+01
      vertex 2.740039e+01 1.750000e+01 1.076254e+01
    endloop
  endfacet
  facet normal -6.087614e-01 -4.893273e-16 7.933533e-01
    outer loop
      vertex 2.740039e+01 -2.500000e+00 1.076254e+01
      vertex 2.703795e+01 1.750000e+01 1.048444e+01
      vertex 2.703795e+01 -2.500000e+00 1.048444e+01
    endloop
  endfacet
  facet normal -9.914449e-01 -4.788437e-16 -1.305262e-01
    outer loop
      vertex -2.447258e+01 1.750000e+01 1.245291e+01
      vertex -2.441295e+01 -2.500000e+00 1.200000e+01
      vertex -2.447258e+01 -2.500000e+00 1.245291e+01
    endloop
  endfacet
  facet normal -9.914449e-01 -4.788437e-16 -1.305262e-01
    outer loop
      vertex -2.441295e+01 -2.500000e+00 1.200000e+01
      vertex -2.447258e+01 1.750000e+01 1.245291e+01
      vertex -2.441295e+01 1.750000e+01 1.200000e+01
    endloop
  endfacet
  facet normal -7.933533e-01 -5.426406e-16 6.087614e-01
    outer loop
      vertex 2.767850e+01 1.750000e+01 1.112500e+01
      vertex 2.740039e+01 -2.500000e+00 1.076254e+01
      vertex 2.767850e+01 -2.500000e+00 1.112500e+01
    endloop
  endfacet
  facet normal -7.933533e-01 -5.426406e-16 6.087614e-01
    outer loop
      vertex 2.740039e+01 -2.500000e+00 1.076254e+01
      vertex 2.767850e+01 1.750000e+01 1.112500e+01
      vertex 2.740039e+01 1.750000e+01 1.076254e+01
    endloop
  endfacet
  facet normal 3.826834e-01 -1.048361e-17 9.238795e-01
    outer loop
      vertex 2.528795e+01 1.750000e+01 1.048444e+01
      vertex 2.571002e+01 -2.500000e+00 1.030963e+01
      vertex 2.571002e+01 1.750000e+01 1.030963e+01
    endloop
  endfacet
  facet normal 3.826834e-01 -1.048361e-17 9.238795e-01
    outer loop
      vertex 2.571002e+01 -2.500000e+00 1.030963e+01
      vertex 2.528795e+01 1.750000e+01 1.048444e+01
      vertex 2.528795e+01 -2.500000e+00 1.048444e+01
    endloop
  endfacet
  facet normal 7.933533e-01 5.426406e-16 -6.087614e-01
    outer loop
      vertex 2.464741e+01 1.750000e+01 1.287500e+01
      vertex 2.492551e+01 -2.500000e+00 1.323743e+01
      vertex 2.464741e+01 -2.500000e+00 1.287500e+01
    endloop
  endfacet
  facet normal 7.933533e-01 5.426406e-16 -6.087614e-01
    outer loop
      vertex 2.492551e+01 -2.500000e+00 1.323743e+01
      vertex 2.464741e+01 1.750000e+01 1.287500e+01
      vertex 2.492551e+01 1.750000e+01 1.323743e+01
    endloop
  endfacet
  facet normal -7.933533e-01 -2.704078e-16 -6.087614e-01
    outer loop
      vertex -2.492551e+01 1.750000e+01 1.323743e+01
      vertex -2.464741e+01 -2.500000e+00 1.287500e+01
      vertex -2.492551e+01 -2.500000e+00 1.323743e+01
    endloop
  endfacet
  facet normal -7.933533e-01 -2.704078e-16 -6.087614e-01
    outer loop
      vertex -2.464741e+01 -2.500000e+00 1.287500e+01
      vertex -2.492551e+01 1.750000e+01 1.323743e+01
      vertex -2.464741e+01 1.750000e+01 1.287500e+01
    endloop
  endfacet
  facet normal -7.933533e-01 -2.704078e-16 -6.087614e-01
    outer loop
      vertex 2.740039e+01 1.750000e+01 1.323743e+01
      vertex 2.767850e+01 -2.500000e+00 1.287500e+01
      vertex 2.740039e+01 -2.500000e+00 1.323743e+01
    endloop
  endfacet
  facet normal -7.933533e-01 -2.704078e-16 -6.087614e-01
    outer loop
      vertex 2.767850e+01 -2.500000e+00 1.287500e+01
      vertex 2.740039e+01 1.750000e+01 1.323743e+01
      vertex 2.767850e+01 1.750000e+01 1.287500e+01
    endloop
  endfacet
  facet normal -3.826834e-01 1.048361e-17 -9.238795e-01
    outer loop
      vertex 2.661588e+01 -2.500000e+00 1.369037e+01
      vertex 2.703795e+01 1.750000e+01 1.351553e+01
      vertex 2.703795e+01 -2.500000e+00 1.351553e+01
    endloop
  endfacet
  facet normal -3.826834e-01 1.048361e-17 -9.238795e-01
    outer loop
      vertex 2.703795e+01 1.750000e+01 1.351553e+01
      vertex 2.661588e+01 -2.500000e+00 1.369037e+01
      vertex 2.661588e+01 1.750000e+01 1.369037e+01
    endloop
  endfacet
  facet normal -1.305262e-01 1.547995e-16 -9.914449e-01
    outer loop
      vertex 2.616295e+01 -2.500000e+00 1.375000e+01
      vertex 2.661588e+01 1.750000e+01 1.369037e+01
      vertex 2.661588e+01 -2.500000e+00 1.369037e+01
    endloop
  endfacet
  facet normal -1.305262e-01 1.547995e-16 -9.914449e-01
    outer loop
      vertex 2.661588e+01 1.750000e+01 1.369037e+01
      vertex 2.616295e+01 -2.500000e+00 1.375000e+01
      vertex 2.616295e+01 1.750000e+01 1.375000e+01
    endloop
  endfacet
  facet normal 7.933533e-01 2.704078e-16 6.087614e-01
    outer loop
      vertex 2.492551e+01 1.750000e+01 1.076254e+01
      vertex 2.464741e+01 -2.500000e+00 1.112500e+01
      vertex 2.492551e+01 -2.500000e+00 1.076254e+01
    endloop
  endfacet
  facet normal 7.933533e-01 2.704078e-16 6.087614e-01
    outer loop
      vertex 2.464741e+01 -2.500000e+00 1.112500e+01
      vertex 2.492551e+01 1.750000e+01 1.076254e+01
      vertex 2.464741e+01 1.750000e+01 1.112500e+01
    endloop
  endfacet
  facet normal 6.087614e-01 4.893273e-16 -7.933533e-01
    outer loop
      vertex 2.492551e+01 -2.500000e+00 1.323743e+01
      vertex 2.528795e+01 1.750000e+01 1.351553e+01
      vertex 2.528795e+01 -2.500000e+00 1.351553e+01
    endloop
  endfacet
  facet normal 6.087614e-01 4.893273e-16 -7.933533e-01
    outer loop
      vertex 2.528795e+01 1.750000e+01 1.351553e+01
      vertex 2.492551e+01 -2.500000e+00 1.323743e+01
      vertex 2.492551e+01 1.750000e+01 1.323743e+01
    endloop
  endfacet
  facet normal -9.238795e-01 -5.589738e-16 3.826834e-01
    outer loop
      vertex 2.785332e+01 1.750000e+01 1.154706e+01
      vertex 2.767850e+01 -2.500000e+00 1.112500e+01
      vertex 2.785332e+01 -2.500000e+00 1.154706e+01
    endloop
  endfacet
  facet normal -9.238795e-01 -5.589738e-16 3.826834e-01
    outer loop
      vertex 2.767850e+01 -2.500000e+00 1.112500e+01
      vertex 2.785332e+01 1.750000e+01 1.154706e+01
      vertex 2.767850e+01 1.750000e+01 1.112500e+01
    endloop
  endfacet
  facet normal 1.305262e-01 2.885660e-16 -9.914449e-01
    outer loop
      vertex -2.661588e+01 -2.500000e+00 1.369037e+01
      vertex -2.616295e+01 1.750000e+01 1.375000e+01
      vertex -2.616295e+01 -2.500000e+00 1.375000e+01
    endloop
  endfacet
  facet normal 1.305262e-01 2.885660e-16 -9.914449e-01
    outer loop
      vertex -2.616295e+01 1.750000e+01 1.375000e+01
      vertex -2.661588e+01 -2.500000e+00 1.369037e+01
      vertex -2.661588e+01 1.750000e+01 1.369037e+01
    endloop
  endfacet
  facet normal 3.826834e-01 4.026672e-16 -9.238795e-01
    outer loop
      vertex -2.703795e+01 -2.500000e+00 1.351553e+01
      vertex -2.661588e+01 1.750000e+01 1.369037e+01
      vertex -2.661588e+01 -2.500000e+00 1.369037e+01
    endloop
  endfacet
  facet normal 3.826834e-01 4.026672e-16 -9.238795e-01
    outer loop
      vertex -2.661588e+01 1.750000e+01 1.369037e+01
      vertex -2.703795e+01 -2.500000e+00 1.351553e+01
      vertex -2.703795e+01 1.750000e+01 1.351553e+01
    endloop
  endfacet
  facet normal 9.238795e-01 3.878411e-16 3.826834e-01
    outer loop
      vertex 2.464741e+01 1.750000e+01 1.112500e+01
      vertex 2.447258e+01 -2.500000e+00 1.154706e+01
      vertex 2.464741e+01 -2.500000e+00 1.112500e+01
    endloop
  endfacet
  facet normal 9.238795e-01 3.878411e-16 3.826834e-01
    outer loop
      vertex 2.447258e+01 -2.500000e+00 1.154706e+01
      vertex 2.464741e+01 1.750000e+01 1.112500e+01
      vertex 2.447258e+01 1.750000e+01 1.154706e+01
    endloop
  endfacet
  facet normal 6.087614e-01 4.893273e-16 -7.933533e-01
    outer loop
      vertex -2.740039e+01 -2.500000e+00 1.323743e+01
      vertex -2.703795e+01 1.750000e+01 1.351553e+01
      vertex -2.703795e+01 -2.500000e+00 1.351553e+01
    endloop
  endfacet
  facet normal 6.087614e-01 4.893273e-16 -7.933533e-01
    outer loop
      vertex -2.703795e+01 1.750000e+01 1.351553e+01
      vertex -2.740039e+01 -2.500000e+00 1.323743e+01
      vertex -2.740039e+01 1.750000e+01 1.323743e+01
    endloop
  endfacet
  facet normal 6.087614e-01 1.345467e-16 7.933533e-01
    outer loop
      vertex 2.492551e+01 1.750000e+01 1.076254e+01
      vertex 2.528795e+01 -2.500000e+00 1.048444e+01
      vertex 2.528795e+01 1.750000e+01 1.048444e+01
    endloop
  endfacet
  facet normal 6.087614e-01 1.345467e-16 7.933533e-01
    outer loop
      vertex 2.528795e+01 -2.500000e+00 1.048444e+01
      vertex 2.492551e+01 1.750000e+01 1.076254e+01
      vertex 2.492551e+01 -2.500000e+00 1.076254e+01
    endloop
  endfacet
  facet normal 1.305262e-01 -1.547995e-16 9.914449e-01
    outer loop
      vertex 2.571002e+01 1.750000e+01 1.030963e+01
      vertex 2.616295e+01 -2.500000e+00 1.025000e+01
      vertex 2.616295e+01 1.750000e+01 1.025000e+01
    endloop
  endfacet
  facet normal 1.305262e-01 -1.547995e-16 9.914449e-01
    outer loop
      vertex 2.616295e+01 -2.500000e+00 1.025000e+01
      vertex 2.571002e+01 1.750000e+01 1.030963e+01
      vertex 2.571002e+01 -2.500000e+00 1.030963e+01
    endloop
  endfacet
  facet normal -1.305262e-01 -2.885660e-16 9.914449e-01
    outer loop
      vertex 2.616295e+01 1.750000e+01 1.025000e+01
      vertex 2.661588e+01 -2.500000e+00 1.030963e+01
      vertex 2.661588e+01 1.750000e+01 1.030963e+01
    endloop
  endfacet
  facet normal -1.305262e-01 -2.885660e-16 9.914449e-01
    outer loop
      vertex 2.661588e+01 -2.500000e+00 1.030963e+01
      vertex 2.616295e+01 1.750000e+01 1.025000e+01
      vertex 2.616295e+01 -2.500000e+00 1.025000e+01
    endloop
  endfacet
  facet normal 3.826834e-01 4.026672e-16 -9.238795e-01
    outer loop
      vertex 2.528795e+01 -2.500000e+00 1.351553e+01
      vertex 2.571002e+01 1.750000e+01 1.369037e+01
      vertex 2.571002e+01 -2.500000e+00 1.369037e+01
    endloop
  endfacet
  facet normal 3.826834e-01 4.026672e-16 -9.238795e-01
    outer loop
      vertex 2.571002e+01 1.750000e+01 1.369037e+01
      vertex 2.528795e+01 -2.500000e+00 1.351553e+01
      vertex 2.528795e+01 1.750000e+01 1.351553e+01
    endloop
  endfacet
  facet normal 9.238795e-01 5.589738e-16 -3.826834e-01
    outer loop
      vertex 2.447258e+01 1.750000e+01 1.245291e+01
      vertex 2.464741e+01 -2.500000e+00 1.287500e+01
      vertex 2.447258e+01 -2.500000e+00 1.245291e+01
    endloop
  endfacet
  facet normal 9.238795e-01 5.589738e-16 -3.826834e-01
    outer loop
      vertex 2.464741e+01 -2.500000e+00 1.287500e+01
      vertex 2.447258e+01 1.750000e+01 1.245291e+01
      vertex 2.464741e+01 1.750000e+01 1.287500e+01
    endloop
  endfacet
  facet normal -3.826834e-01 -4.026672e-16 9.238795e-01
    outer loop
      vertex 2.661588e+01 1.750000e+01 1.030963e+01
      vertex 2.703795e+01 -2.500000e+00 1.048444e+01
      vertex 2.703795e+01 1.750000e+01 1.048444e+01
    endloop
  endfacet
  facet normal -3.826834e-01 -4.026672e-16 9.238795e-01
    outer loop
      vertex 2.703795e+01 -2.500000e+00 1.048444e+01
      vertex 2.661588e+01 1.750000e+01 1.030963e+01
      vertex 2.661588e+01 -2.500000e+00 1.030963e+01
    endloop
  endfacet
  facet normal 1.305262e-01 2.885660e-16 -9.914449e-01
    outer loop
      vertex 2.571002e+01 -2.500000e+00 1.369037e+01
      vertex 2.616295e+01 1.750000e+01 1.375000e+01
      vertex 2.616295e+01 -2.500000e+00 1.375000e+01
    endloop
  endfacet
  facet normal 1.305262e-01 2.885660e-16 -9.914449e-01
    outer loop
      vertex 2.616295e+01 1.750000e+01 1.375000e+01
      vertex 2.571002e+01 -2.500000e+00 1.369037e+01
      vertex 2.571002e+01 1.750000e+01 1.369037e+01
    endloop
  endfacet
  facet normal -9.914449e-01 -4.788437e-16 -1.305262e-01
    outer loop
      vertex 2.785332e+01 1.750000e+01 1.245291e+01
      vertex 2.791295e+01 -2.500000e+00 1.200000e+01
      vertex 2.785332e+01 -2.500000e+00 1.245291e+01
    endloop
  endfacet
  facet normal -9.914449e-01 -4.788437e-16 -1.305262e-01
    outer loop
      vertex 2.791295e+01 -2.500000e+00 1.200000e+01
      vertex 2.785332e+01 1.750000e+01 1.245291e+01
      vertex 2.791295e+01 1.750000e+01 1.200000e+01
    endloop
  endfacet
  facet normal 9.238795e-01 5.589738e-16 -3.826834e-01
    outer loop
      vertex -2.785332e+01 1.750000e+01 1.245291e+01
      vertex -2.767850e+01 -2.500000e+00 1.287500e+01
      vertex -2.785332e+01 -2.500000e+00 1.245291e+01
    endloop
  endfacet
  facet normal 9.238795e-01 5.589738e-16 -3.826834e-01
    outer loop
      vertex -2.767850e+01 -2.500000e+00 1.287500e+01
      vertex -2.785332e+01 1.750000e+01 1.245291e+01
      vertex -2.767850e+01 1.750000e+01 1.287500e+01
    endloop
  endfacet
  facet normal -6.087614e-01 -4.893273e-16 7.933533e-01
    outer loop
      vertex -2.528795e+01 1.750000e+01 1.048444e+01
      vertex -2.492551e+01 -2.500000e+00 1.076254e+01
      vertex -2.492551e+01 1.750000e+01 1.076254e+01
    endloop
  endfacet
  facet normal -6.087614e-01 -4.893273e-16 7.933533e-01
    outer loop
      vertex -2.492551e+01 -2.500000e+00 1.076254e+01
      vertex -2.528795e+01 1.750000e+01 1.048444e+01
      vertex -2.528795e+01 -2.500000e+00 1.048444e+01
    endloop
  endfacet
  facet normal 6.087614e-01 1.345467e-16 7.933533e-01
    outer loop
      vertex -2.740039e+01 1.750000e+01 1.076254e+01
      vertex -2.703795e+01 -2.500000e+00 1.048444e+01
      vertex -2.703795e+01 1.750000e+01 1.048444e+01
    endloop
  endfacet
  facet normal 6.087614e-01 1.345467e-16 7.933533e-01
    outer loop
      vertex -2.703795e+01 -2.500000e+00 1.048444e+01
      vertex -2.740039e+01 1.750000e+01 1.076254e+01
      vertex -2.740039e+01 -2.500000e+00 1.076254e+01
    endloop
  endfacet
  facet normal 7.933533e-01 5.426406e-16 -6.087614e-01
    outer loop
      vertex -2.767850e+01 1.750000e+01 1.287500e+01
      vertex -2.740039e+01 -2.500000e+00 1.323743e+01
      vertex -2.767850e+01 -2.500000e+00 1.287500e+01
    endloop
  endfacet
  facet normal 7.933533e-01 5.426406e-16 -6.087614e-01
    outer loop
      vertex -2.740039e+01 -2.500000e+00 1.323743e+01
      vertex -2.767850e+01 1.750000e+01 1.287500e+01
      vertex -2.740039e+01 1.750000e+01 1.323743e+01
    endloop
  endfacet
  facet normal 9.914449e-01 4.788437e-16 1.305262e-01
    outer loop
      vertex -2.785332e+01 1.750000e+01 1.154706e+01
      vertex -2.791295e+01 -2.500000e+00 1.200000e+01
      vertex -2.785332e+01 -2.500000e+00 1.154706e+01
    endloop
  endfacet
  facet normal 9.914449e-01 4.788437e-16 1.305262e-01
    outer loop
      vertex -2.791295e+01 -2.500000e+00 1.200000e+01
      vertex -2.785332e+01 1.750000e+01 1.154706e+01
      vertex -2.791295e+01 1.750000e+01 1.200000e+01
    endloop
  endfacet
  facet normal -9.238795e-01 -5.589738e-16 3.826834e-01
    outer loop
      vertex -2.447258e+01 1.750000e+01 1.154706e+01
      vertex -2.464741e+01 -2.500000e+00 1.112500e+01
      vertex -2.447258e+01 -2.500000e+00 1.154706e+01
    endloop
  endfacet
  facet normal -9.238795e-01 -5.589738e-16 3.826834e-01
    outer loop
      vertex -2.464741e+01 -2.500000e+00 1.112500e+01
      vertex -2.447258e+01 1.750000e+01 1.154706e+01
      vertex -2.464741e+01 1.750000e+01 1.112500e+01
    endloop
  endfacet
  facet normal 9.238795e-01 3.878411e-16 3.826834e-01
    outer loop
      vertex -2.767850e+01 1.750000e+01 1.112500e+01
      vertex -2.785332e+01 -2.500000e+00 1.154706e+01
      vertex -2.767850e+01 -2.500000e+00 1.112500e+01
    endloop
  endfacet
  facet normal 9.238795e-01 3.878411e-16 3.826834e-01
    outer loop
      vertex -2.785332e+01 -2.500000e+00 1.154706e+01
      vertex -2.767850e+01 1.750000e+01 1.112500e+01
      vertex -2.785332e+01 1.750000e+01 1.154706e+01
    endloop
  endfacet
  facet normal 9.914449e-01 5.372139e-16 -1.305262e-01
    outer loop
      vertex -2.791295e+01 1.750000e+01 1.200000e+01
      vertex -2.785332e+01 -2.500000e+00 1.245291e+01
      vertex -2.791295e+01 -2.500000e+00 1.200000e+01
    endloop
  endfacet
  facet normal 9.914449e-01 5.372139e-16 -1.305262e-01
    outer loop
      vertex -2.785332e+01 -2.500000e+00 1.245291e+01
      vertex -2.791295e+01 1.750000e+01 1.200000e+01
      vertex -2.785332e+01 1.750000e+01 1.245291e+01
    endloop
  endfacet
  facet normal -3.826834e-01 -4.026672e-16 9.238795e-01
    outer loop
      vertex -2.571002e+01 1.750000e+01 1.030963e+01
      vertex -2.528795e+01 -2.500000e+00 1.048444e+01
      vertex -2.528795e+01 1.750000e+01 1.048444e+01
    endloop
  endfacet
  facet normal -3.826834e-01 -4.026672e-16 9.238795e-01
    outer loop
      vertex -2.528795e+01 -2.500000e+00 1.048444e+01
      vertex -2.571002e+01 1.750000e+01 1.030963e+01
      vertex -2.571002e+01 -2.500000e+00 1.030963e+01
    endloop
  endfacet
  facet normal -7.933533e-01 -5.426406e-16 6.087614e-01
    outer loop
      vertex -2.464741e+01 1.750000e+01 1.112500e+01
      vertex -2.492551e+01 -2.500000e+00 1.076254e+01
      vertex -2.464741e+01 -2.500000e+00 1.112500e+01
    endloop
  endfacet
  facet normal -7.933533e-01 -5.426406e-16 6.087614e-01
    outer loop
      vertex -2.492551e+01 -2.500000e+00 1.076254e+01
      vertex -2.464741e+01 1.750000e+01 1.112500e+01
      vertex -2.492551e+01 1.750000e+01 1.076254e+01
    endloop
  endfacet
  facet normal -1.305262e-01 -2.885660e-16 9.914449e-01
    outer loop
      vertex -2.616295e+01 1.750000e+01 1.025000e+01
      vertex -2.571002e+01 -2.500000e+00 1.030963e+01
      vertex -2.571002e+01 1.750000e+01 1.030963e+01
    endloop
  endfacet
  facet normal -1.305262e-01 -2.885660e-16 9.914449e-01
    outer loop
      vertex -2.571002e+01 -2.500000e+00 1.030963e+01
      vertex -2.616295e+01 1.750000e+01 1.025000e+01
      vertex -2.616295e+01 -2.500000e+00 1.025000e+01
    endloop
  endfacet
  facet normal 7.933533e-01 2.704078e-16 6.087614e-01
    outer loop
      vertex -2.740039e+01 1.750000e+01 1.076254e+01
      vertex -2.767850e+01 -2.500000e+00 1.112500e+01
      vertex -2.740039e+01 -2.500000e+00 1.076254e+01
    endloop
  endfacet
  facet normal 7.933533e-01 2.704078e-16 6.087614e-01
    outer loop
      vertex -2.767850e+01 -2.500000e+00 1.112500e+01
      vertex -2.740039e+01 1.750000e+01 1.076254e+01
      vertex -2.767850e+01 1.750000e+01 1.112500e+01
    endloop
  endfacet
  facet normal 3.826834e-01 -1.048361e-17 9.238795e-01
    outer loop
      vertex -2.703795e+01 1.750000e+01 1.048444e+01
      vertex -2.661588e+01 -2.500000e+00 1.030963e+01
      vertex -2.661588e+01 1.750000e+01 1.030963e+01
    endloop
  endfacet
  facet normal 3.826834e-01 -1.048361e-17 9.238795e-01
    outer loop
      vertex -2.661588e+01 -2.500000e+00 1.030963e+01
      vertex -2.703795e+01 1.750000e+01 1.048444e+01
      vertex -2.703795e+01 -2.500000e+00 1.048444e+01
    endloop
  endfacet
  facet normal 1.305262e-01 -1.547995e-16 9.914449e-01
    outer loop
      vertex -2.661588e+01 1.750000e+01 1.030963e+01
      vertex -2.616295e+01 -2.500000e+00 1.025000e+01
      vertex -2.616295e+01 1.750000e+01 1.025000e+01
    endloop
  endfacet
  facet normal 1.305262e-01 -1.547995e-16 9.914449e-01
    outer loop
      vertex -2.616295e+01 -2.500000e+00 1.025000e+01
      vertex -2.661588e+01 1.750000e+01 1.030963e+01
      vertex -2.661588e+01 -2.500000e+00 1.030963e+01
    endloop
  endfacet
  facet normal -9.914449e-01 -5.372139e-16 1.305262e-01
    outer loop
      vertex -2.441295e+01 1.750000e+01 1.200000e+01
      vertex -2.447258e+01 -2.500000e+00 1.154706e+01
      vertex -2.441295e+01 -2.500000e+00 1.200000e+01
    endloop
  endfacet
  facet normal -9.914449e-01 -5.372139e-16 1.305262e-01
    outer loop
      vertex -2.447258e+01 -2.500000e+00 1.154706e+01
      vertex -2.441295e+01 1.750000e+01 1.200000e+01
      vertex -2.447258e+01 1.750000e+01 1.154706e+01
    endloop
  endfacet
  facet normal -1.000000e+00 -3.061617e-16 -2.164935e-15
    outer loop
      vertex 2.216295e+01 1.750000e+01 1.200000e+01
      vertex 2.216295e+01 -2.500000e+00 4.000000e+00
      vertex 2.216295e+01 -2.500000e+00 1.200000e+01
    endloop
  endfacet
  facet normal -1.000000e+00 -3.061617e-16 -2.164935e-15
    outer loop
      vertex 2.216295e+01 -2.500000e+00 4.000000e+00
      vertex 2.216295e+01 1.750000e+01 1.200000e+01
      vertex 2.216295e+01 1.750000e+01 4.000000e+00
    endloop
  endfacet
  facet normal 3.061617e-16 -1.000000e+00 -6.123234e-17
    outer loop
      vertex -1.816295e+01 -1.250000e+01 0.000000e+00
      vertex 1.816295e+01 -1.250000e+01 4.000000e+00
      vertex -1.816295e+01 -1.250000e+01 4.000000e+00
    endloop
  endfacet
  facet normal 3.061617e-16 -1.000000e+00 -6.123234e-17
    outer loop
      vertex 1.816295e+01 -1.250000e+01 4.000000e+00
      vertex -1.816295e+01 -1.250000e+01 0.000000e+00
      vertex 1.816295e+01 -1.250000e+01 0.000000e+00
    endloop
  endfacet
  facet normal -3.061617e-16 1.000000e+00 6.123234e-17
    outer loop
      vertex 1.816295e+01 -1.450000e+01 0.000000e+00
      vertex -1.816295e+01 -1.450000e+01 4.000000e+00
      vertex 1.816295e+01 -1.450000e+01 4.000000e+00
    endloop
  endfacet
  facet normal -3.061617e-16 1.000000e+00 6.123234e-17
    outer loop
      vertex -1.816295e+01 -1.450000e+01 4.000000e+00
      vertex 1.816295e+01 -1.450000e+01 0.000000e+00
      vertex -1.816295e+01 -1.450000e+01 0.000000e+00
    endloop
  endfacet
  facet normal 4.557855e-17 -1.000000e+00 -6.123234e-17
    outer loop
      vertex -1.816295e+01 1.450000e+01 0.000000e+00
      vertex 1.816295e+01 1.450000e+01 4.000000e+00
      vertex -1.816295e+01 1.450000e+01 4.000000e+00
    endloop
  endfacet
  facet normal 4.557855e-17 -1.000000e+00 -6.123234e-17
    outer loop
      vertex 1.816295e+01 1.450000e+01 4.000000e+00
      vertex -1.816295e+01 1.450000e+01 0.000000e+00
      vertex 1.816295e+01 1.450000e+01 0.000000e+00
    endloop
  endfacet
  facet normal -3.061617e-16 1.000000e+00 6.123234e-17
    outer loop
      vertex 1.816295e+01 1.250000e+01 0.000000e+00
      vertex -1.816295e+01 1.250000e+01 4.000000e+00
      vertex 1.816295e+01 1.250000e+01 4.000000e+00
    endloop
  endfacet
  facet normal -3.061617e-16 1.000000e+00 6.123234e-17
    outer loop
      vertex -1.816295e+01 1.250000e+01 4.000000e+00
      vertex 1.816295e+01 1.250000e+01 0.000000e+00
      vertex -1.816295e+01 1.250000e+01 0.000000e+00
    endloop
  endfacet
  facet normal -1.000000e+00 -4.690262e-16 -2.164935e-15
    outer loop
      vertex -2.216295e+01 -2.500000e+00 4.000000e+00
      vertex -2.216295e+01 -1.750000e+01 0.000000e+00
      vertex -2.216295e+01 -1.750000e+01 4.000000e+00
    endloop
  endfacet
  facet normal -1.000000e+00 -4.690262e-16 -2.164935e-15
    outer loop
      vertex -2.216295e+01 -1.750000e+01 0.000000e+00
      vertex -2.216295e+01 -2.500000e+00 4.000000e+00
      vertex -2.216295e+01 -2.500000e+00 0.000000e+00
    endloop
  endfacet
  facet normal 1.000000e+00 4.690262e-16 2.164935e-15
    outer loop
      vertex 2.216295e+01 -2.500000e+00 0.000000e+00
      vertex 2.216295e+01 -1.750000e+01 4.000000e+00
      vertex 2.216295e+01 -1.750000e+01 0.000000e+00
    endloop
  endfacet
  facet normal 1.000000e+00 4.690262e-16 2.164935e-15
    outer loop
      vertex 2.216295e+01 -1.750000e+01 4.000000e+00
      vertex 2.216295e+01 -2.500000e+00 0.000000e+00
      vertex 2.216295e+01 -2.500000e+00 4.000000e+00
    endloop
  endfacet
  facet normal 4.690262e-16 -1.000000e+00 -4.221880e-16
    outer loop
      vertex -2.216295e+01 -1.750000e+01 0.000000e+00
      vertex 2.216295e+01 -1.750000e+01 4.000000e+00
      vertex -2.216295e+01 -1.750000e+01 4.000000e+00
    endloop
  endfacet
  facet normal 4.690262e-16 -1.000000e+00 -4.221880e-16
    outer loop
      vertex 2.216295e+01 -1.750000e+01 4.000000e+00
      vertex -2.216295e+01 -1.750000e+01 0.000000e+00
      vertex 2.216295e+01 -1.750000e+01 0.000000e+00
    endloop
  endfacet
  facet normal 1.000000e+00 1.185674e-14 2.164935e-15
    outer loop
      vertex -1.816295e+01 -1.250000e+01 0.000000e+00
      vertex -1.816295e+01 -1.450000e+01 4.000000e+00
      vertex -1.816295e+01 -1.450000e+01 0.000000e+00
    endloop
  endfacet
  facet normal 1.000000e+00 1.185674e-14 2.164935e-15
    outer loop
      vertex -1.816295e+01 -1.450000e+01 4.000000e+00
      vertex -1.816295e+01 -1.250000e+01 0.000000e+00
      vertex -1.816295e+01 -1.250000e+01 4.000000e+00
    endloop
  endfacet
  facet normal 3.061617e-16 -1.000000e+00 -6.123234e-17
    outer loop
      vertex 2.512768e+01 -2.500000e+00 1.586368e+01
      vertex 2.719823e+01 -2.500000e+00 1.586368e+01
      vertex 2.616295e+01 -2.500000e+00 1.600000e+01
    endloop
  endfacet
  facet normal 3.061617e-16 -1.000000e+00 -6.123234e-17
    outer loop
      vertex 2.719823e+01 -2.500000e+00 1.586368e+01
      vertex 2.512768e+01 -2.500000e+00 1.586368e+01
      vertex 2.416295e+01 -2.500000e+00 1.546408e+01
    endloop
  endfacet
  facet normal 3.061617e-16 -1.000000e+00 -6.123234e-17
    outer loop
      vertex 2.719823e+01 -2.500000e+00 1.586368e+01
      vertex 2.416295e+01 -2.500000e+00 1.546408e+01
      vertex 2.816295e+01 -2.500000e+00 1.546408e+01
    endloop
  endfacet
  facet normal 3.061617e-16 -1.000000e+00 -6.123234e-17
    outer loop
      vertex 2.816295e+01 -2.500000e+00 1.546408e+01
      vertex 2.416295e+01 -2.500000e+00 1.546408e+01
      vertex 2.333452e+01 -2.500000e+00 1.482840e+01
    endloop
  endfacet
  facet normal 3.061617e-16 -1.000000e+00 -6.123234e-17
    outer loop
      vertex 2.816295e+01 -2.500000e+00 1.546408e+01
      vertex 2.333452e+01 -2.500000e+00 1.482840e+01
      vertex 2.899138e+01 -2.500000e+00 1.482840e+01
    endloop
  endfacet
  facet normal 3.061617e-16 -1.000000e+00 -6.123234e-17
    outer loop
      vertex 2.899138e+01 -2.500000e+00 1.482840e+01
      vertex 2.333452e+01 -2.500000e+00 1.482840e+01
      vertex 2.269885e+01 -2.500000e+00 1.400000e+01
    endloop
  endfacet
  facet normal 3.061617e-16 -1.000000e+00 -6.123234e-17
    outer loop
      vertex 2.899138e+01 -2.500000e+00 1.482840e+01
      vertex 2.269885e+01 -2.500000e+00 1.400000e+01
      vertex 2.962705e+01 -2.500000e+00 1.400000e+01
    endloop
  endfacet
  facet normal 3.061617e-16 -1.000000e+00 -6.123234e-17
    outer loop
      vertex 2.962705e+01 -2.500000e+00 1.400000e+01
      vertex 2.269885e+01 -2.500000e+00 1.400000e+01
      vertex 2.616295e+01 -2.500000e+00 1.375000e+01
    endloop
  endfacet
  facet normal 3.061617e-16 -1.000000e+00 -6.123234e-17
    outer loop
      vertex 2.616295e+01 -2.500000e+00 1.375000e+01
      vertex 2.269885e+01 -2.500000e+00 1.400000e+01
      vertex 2.571002e+01 -2.500000e+00 1.369037e+01
    endloop
  endfacet
  facet normal 3.061617e-16 -1.000000e+00 -6.123234e-17
    outer loop
      vertex 2.571002e+01 -2.500000e+00 1.369037e+01
      vertex 2.269885e+01 -2.500000e+00 1.400000e+01
      vertex 2.229925e+01 -2.500000e+00 1.303525e+01
    endloop
  endfacet
  facet normal 3.061617e-16 -1.000000e+00 -6.123234e-17
    outer loop
      vertex 2.571002e+01 -2.500000e+00 1.369037e+01
      vertex 2.229925e+01 -2.500000e+00 1.303525e+01
      vertex 2.528795e+01 -2.500000e+00 1.351553e+01
    endloop
  endfacet
  facet normal 3.061617e-16 -1.000000e+00 -6.123234e-17
    outer loop
      vertex 2.528795e+01 -2.500000e+00 1.351553e+01
      vertex 2.229925e+01 -2.500000e+00 1.303525e+01
      vertex 2.492551e+01 -2.500000e+00 1.323743e+01
    endloop
  endfacet
  facet normal 3.061617e-16 -1.000000e+00 -6.123234e-17
    outer loop
      vertex 2.492551e+01 -2.500000e+00 1.323743e+01
      vertex 2.229925e+01 -2.500000e+00 1.303525e+01
      vertex 2.464741e+01 -2.500000e+00 1.287500e+01
    endloop
  endfacet
  facet normal 3.061617e-16 -1.000000e+00 -6.123234e-17
    outer loop
      vertex 2.464741e+01 -2.500000e+00 1.287500e+01
      vertex 2.229925e+01 -2.500000e+00 1.303525e+01
      vertex 2.216295e+01 -2.500000e+00 1.200000e+01
    endloop
  endfacet
  facet normal 3.061617e-16 -1.000000e+00 -6.123234e-17
    outer loop
      vertex 2.464741e+01 -2.500000e+00 1.287500e+01
      vertex 2.216295e+01 -2.500000e+00 1.200000e+01
      vertex 2.447258e+01 -2.500000e+00 1.245291e+01
    endloop
  endfacet
  facet normal 3.061617e-16 -1.000000e+00 -6.123234e-17
    outer loop
      vertex 2.447258e+01 -2.500000e+00 1.245291e+01
      vertex 2.216295e+01 -2.500000e+00 1.200000e+01
      vertex 2.441295e+01 -2.500000e+00 1.200000e+01
    endloop
  endfacet
  facet normal 3.061617e-16 -1.000000e+00 -6.123234e-17
    outer loop
      vertex 2.441295e+01 -2.500000e+00 1.200000e+01
      vertex 2.216295e+01 -2.500000e+00 1.200000e+01
      vertex 2.447258e+01 -2.500000e+00 1.154706e+01
    endloop
  endfacet
  facet normal 3.061617e-16 -1.000000e+00 -6.123234e-17
    outer loop
      vertex 2.447258e+01 -2.500000e+00 1.154706e+01
      vertex 2.216295e+01 -2.500000e+00 1.200000e+01
      vertex 2.216295e+01 -2.500000e+00 4.000000e+00
    endloop
  endfacet
  facet normal 3.061617e-16 -1.000000e+00 -6.123234e-17
    outer loop
      vertex 2.447258e+01 -2.500000e+00 1.154706e+01
      vertex 2.216295e+01 -2.500000e+00 4.000000e+00
      vertex 2.464741e+01 -2.500000e+00 1.112500e+01
    endloop
  endfacet
  facet normal 3.061617e-16 -1.000000e+00 -6.123234e-17
    outer loop
      vertex 2.464741e+01 -2.500000e+00 1.112500e+01
      vertex 2.216295e+01 -2.500000e+00 4.000000e+00
      vertex 2.492551e+01 -2.500000e+00 1.076254e+01
    endloop
  endfacet
  facet normal 3.061617e-16 -1.000000e+00 -6.123234e-17
    outer loop
      vertex 2.492551e+01 -2.500000e+00 1.076254e+01
      vertex 2.216295e+01 -2.500000e+00 4.000000e+00
      vertex 2.528795e+01 -2.500000e+00 1.048444e+01
    endloop
  endfacet
  facet normal 3.061617e-16 -1.000000e+00 -6.123234e-17
    outer loop
      vertex 2.528795e+01 -2.500000e+00 1.048444e+01
      vertex 2.216295e+01 -2.500000e+00 4.000000e+00
      vertex 2.571002e+01 -2.500000e+00 1.030963e+01
    endloop
  endfacet
  facet normal 3.061617e-16 -1.000000e+00 -6.123234e-17
    outer loop
      vertex 2.571002e+01 -2.500000e+00 1.030963e+01
      vertex 2.216295e+01 -2.500000e+00 4.000000e+00
      vertex 2.616295e+01 -2.500000e+00 1.025000e+01
    endloop
  endfacet
  facet normal 3.061617e-16 -1.000000e+00 -6.123234e-17
    outer loop
      vertex 2.962705e+01 -2.500000e+00 1.400000e+01
      vertex 2.661588e+01 -2.500000e+00 1.369037e+01
      vertex 3.002665e+01 -2.500000e+00 1.303525e+01
    endloop
  endfacet
  facet normal 3.061617e-16 -1.000000e+00 -6.123234e-17
    outer loop
      vertex 2.661588e+01 -2.500000e+00 1.369037e+01
      vertex 2.962705e+01 -2.500000e+00 1.400000e+01
      vertex 2.616295e+01 -2.500000e+00 1.375000e+01
    endloop
  endfacet
  facet normal 3.061617e-16 -1.000000e+00 -6.123234e-17
    outer loop
      vertex 3.002665e+01 -2.500000e+00 1.303525e+01
      vertex 2.661588e+01 -2.500000e+00 1.369037e+01
      vertex 2.703795e+01 -2.500000e+00 1.351553e+01
    endloop
  endfacet
  facet normal 3.061617e-16 -1.000000e+00 -6.123234e-17
    outer loop
      vertex 3.002665e+01 -2.500000e+00 1.303525e+01
      vertex 2.703795e+01 -2.500000e+00 1.351553e+01
      vertex 2.740039e+01 -2.500000e+00 1.323743e+01
    endloop
  endfacet
  facet normal 3.061617e-16 -1.000000e+00 -6.123234e-17
    outer loop
      vertex 3.002665e+01 -2.500000e+00 1.303525e+01
      vertex 2.740039e+01 -2.500000e+00 1.323743e+01
      vertex 2.767850e+01 -2.500000e+00 1.287500e+01
    endloop
  endfacet
  facet normal 3.061617e-16 -1.000000e+00 -6.123234e-17
    outer loop
      vertex 3.002665e+01 -2.500000e+00 1.303525e+01
      vertex 2.767850e+01 -2.500000e+00 1.287500e+01
      vertex 3.016295e+01 -2.500000e+00 1.200000e+01
    endloop
  endfacet
  facet normal 3.061617e-16 -1.000000e+00 -6.123234e-17
    outer loop
      vertex 3.016295e+01 -2.500000e+00 1.200000e+01
      vertex 2.767850e+01 -2.500000e+00 1.287500e+01
      vertex 2.785332e+01 -2.500000e+00 1.245291e+01
    endloop
  endfacet
  facet normal 3.061617e-16 -1.000000e+00 -6.123234e-17
    outer loop
      vertex 3.016295e+01 -2.500000e+00 1.200000e+01
      vertex 2.785332e+01 -2.500000e+00 1.245291e+01
      vertex 2.791295e+01 -2.500000e+00 1.200000e+01
    endloop
  endfacet
  facet normal 3.061617e-16 -1.000000e+00 -6.123234e-17
    outer loop
      vertex 3.016295e+01 -2.500000e+00 1.200000e+01
      vertex 2.791295e+01 -2.500000e+00 1.200000e+01
      vertex 3.016295e+01 -2.500000e+00 0.000000e+00
    endloop
  endfacet
  facet normal 3.061617e-16 -1.000000e+00 -6.123234e-17
    outer loop
      vertex 3.016295e+01 -2.500000e+00 0.000000e+00
      vertex 2.791295e+01 -2.500000e+00 1.200000e+01
      vertex 2.785332e+01 -2.500000e+00 1.154706e+01
    endloop
  endfacet
  facet normal 3.061617e-16 -1.000000e+00 -6.123234e-17
    outer loop
      vertex 3.016295e+01 -2.500000e+00 0.000000e+00
      vertex 2.785332e+01 -2.500000e+00 1.154706e+01
      vertex 2.767850e+01 -2.500000e+00 1.112500e+01
    endloop
  endfacet
  facet normal 3.061617e-16 -1.000000e+00 -6.123234e-17
    outer loop
      vertex 3.016295e+01 -2.500000e+00 0.000000e+00
      vertex 2.767850e+01 -2.500000e+00 1.112500e+01
      vertex 2.740039e+01 -2.500000e+00 1.076254e+01
    endloop
  endfacet
  facet normal 3.061617e-16 -1.000000e+00 -6.123234e-17
    outer loop
      vertex 3.016295e+01 -2.500000e+00 0.000000e+00
      vertex 2.740039e+01 -2.500000e+00 1.076254e+01
      vertex 2.703795e+01 -2.500000e+00 1.048444e+01
    endloop
  endfacet
  facet normal 3.061617e-16 -1.000000e+00 -6.123234e-17
    outer loop
      vertex 3.016295e+01 -2.500000e+00 0.000000e+00
      vertex 2.703795e+01 -2.500000e+00 1.048444e+01
      vertex 2.661588e+01 -2.500000e+00 1.030963e+01
    endloop
  endfacet
  facet normal 3.061617e-16 -1.000000e+00 -6.123234e-17
    outer loop
      vertex 3.016295e+01 -2.500000e+00 0.000000e+00
      vertex 2.661588e+01 -2.500000e+00 1.030963e+01
      vertex 2.616295e+01 -2.500000e+00 1.025000e+01
    endloop
  endfacet
  facet normal 3.061617e-16 -1.000000e+00 -6.123234e-17
    outer loop
      vertex 3.016295e+01 -2.500000e+00 0.000000e+00
      vertex 2.616295e+01 -2.500000e+00 1.025000e+01
      vertex 2.216295e+01 -2.500000e+00 4.000000e+00
    endloop
  endfacet
  facet normal 3.061617e-16 -1.000000e+00 -6.123234e-17
    outer loop
      vertex 3.016295e+01 -2.500000e+00 0.000000e+00
      vertex 2.216295e+01 -2.500000e+00 4.000000e+00
      vertex 2.216295e+01 -2.500000e+00 0.000000e+00
    endloop
  endfacet
endsolid Default
